<?xml version="1.0" encoding="utf-8"?>
<!-- Generator: Adobe Illustrator 12.0.0, SVG Export Plug-In . SVG Version: 6.00 Build 51448)  -->
<!DOCTYPE svg PUBLIC "-//W3C//DTD SVG 1.1//EN" "http://www.w3.org/Graphics/SVG/1.1/DTD/svg11.dtd" [
	<!ENTITY ns_svg "http://www.w3.org/2000/svg">
	<!ENTITY ns_xlink "http://www.w3.org/1999/xlink">
]>
<svg  version="1.1" id="Layer_1" xmlns="&ns_svg;" xmlns:xlink="&ns_xlink;" width="336.771" height="258.591"
	 viewBox="0 0 336.771 258.591" overflow="visible" enable-background="new 0 0 336.771 258.591" xml:space="preserve">
<g>
	<path fill-rule="evenodd" clip-rule="evenodd" d="M256.248,10.192c7.031-1.305-0.651-6.938-4.835-6.311
		c2.307-0.923,1.809-2.998-0.266-3.626c-4.467-1.354-12.586,3.039-16.809,4.363c2.119-4.372-4.341-2.407-6.25-1.681
		c-3.581,1.359-6.905,3.748-9.259,6.78c-0.505,0.651-0.65,1.851-1.032,2.271c-1.795,1.99-4.901,3.293-6.916,5.206
		c-3.87,3.672-7.321,7.774-10.807,11.808c3.556,0.808,7.004-4.805,9.318-7.077c2.767-2.716,5.792-4.634,8.698-6.986
		c1.372-1.11,1.629-2.233,2.625-3.57c2.618-3.504,6.91-6.179,11.176-7.075c-0.992,6.061,13.957-0.882,15.775-1.122
		c-1.894,0.923-0.749,2.912,1.047,3.069c2.627,0.229,5.765-0.341,8.094,1.178c-2.904,0.473-5.514,3.593-1.711,4.954
		c-1.172-0.607-2.625-1.361-3.272-0.178c2.594-1.046,8.627,4.571,7.077,7.46c-0.462-0.934-0.884-1.303-1.68-1.975
		c0.91,0.846,1.481,1.94,1.001,2.859c-1.979-2.573-4.582-4.535-7.666-5.572c1.196,0.309,2.397,0.593,3.598,0.883
		c-1.616-0.769-3.514-1.354-5.248-1.443c0.294,0.1,0.589,0.194,0.885,0.293c-0.396-0.11-0.818-0.177-1.209-0.293
		c3.265,1.099,7.301,3.11,9.258,6.074c-2.448,0.068-6.156-4.756-9.288-5.249c2.55,2.438,7.215,5.55,5.603,9.525
		c-1.606-3.477-2.128-6.735-5.809-9.054c2.729,2.181,4.597,5.104,5.336,8.522c-2.788-2.792-3.801-3.336-7.535-2.961
		c-3.891,0.39-7.795,0.692-11.675,1.196c-6.152,0.799-9.127,1.313-12.872-4.162c1.67-0.928,3.692-1.349,5.631-1.033
		c0.393,0.064,4.165,1.541,3.51,0.71c-1.804-2.296-7.39-1.736-9.289,0.116c-2.384-3.032-0.208,3.557,1.326,4.894
		c1.411,1.229,3.799,2.838,5.69,2.863c-0.853,1.003-1.652,2.059-2.387,3.153c2.296-0.013,2.753-3.347,4.098-4.04
		c3.345-1.722,10.483-1.217,14.272-1.68c6.471-0.794,7.755,4.489,12.886,5.72c-2.614-1.888-1.068-3.972-0.472-6.605
		c0.179,0.14,0.357,0.367,0.501,0.472c1.53-0.242,3.074-1.083,3.716-2.918c2.282,2.783,6.076,9.903,10.172,9.052
		c-2.589-3.308-5.217-6.584-7.789-9.906C261.509,16.566,259.243,11.725,256.248,10.192 M256.396,20.541
		c-0.326,0.583-0.982,0.991-1.298,1.651c-1.201-2.374-3.305-4.325-5.219-6.134C252.599,16.597,254.945,18.165,256.396,20.541"/>
	<path fill-rule="evenodd" clip-rule="evenodd" d="M281.667,38.883c7.12-1.18,13.783-3.837,20.957-4.859
		c3.976-0.567,7.994-0.896,12.01-0.979c1.997-0.041,9.31-1.051,8.759,1.473c-2.412-2.146-6.778-0.793-9.555-0.369
		c-5.643,0.865-11.256,2.103-16.365,4.735c-3.273,1.687-7.104,3.909-8.816,7.341c-1.718,3.442-0.412,4.732,0.824,7.843
		c-2.031-2.831-4.111-5.729-6.458-8.314c-2.858-3.153-2.637-1.497-1.119,1.442c0.709,1.377,1.545,2.706,2.506,3.923
		c0.45,0.571,1.276,1.152,1.592,1.799c0.467,0.955,0.182,1.049,0.354,1.563c0.747,2.226,0.171,3.891,3.627,3.243
		c-0.973-0.829-1.143-2.08-0.205-2.86c0.213,1.799,1.493,2.385,2.416,1.268c0.972-1.179,0.337-5.038,0.768-6.664
		c1.136-4.287,3.794-6.05,7.548-7.813c2.747-1.291,5.613-2.433,8.404-3.566c2.509-1.021,4.675-1.559,7.51-1.739
		c2.109-0.135,5.232,0.516,6.852-1.034c-1.573,9.377-6.315,17.857-14.862,22.41c2.991,0,4.394,0.271,6.694-1.504
		c1.513-1.168,2.822-2.896,3.951-4.423c2.015-2.729,3.471-5.712,4.658-8.875c0.9-2.398,3.208-7.737,2.652-10.35
		c-0.789-3.717-5.788-2.417-8.756-2.3c-10.575,0.415-20.986,1.746-31.05,5.07c-2.812,0.931-5.649,1.812-8.61,0.797
		c-4.174-1.43-4.536-7.974-9.496-7.135C272.255,34.051,274.232,39.82,281.667,38.883"/>
	<path fill-rule="evenodd" clip-rule="evenodd" d="M257.339,29.004c-0.363,0-0.728,0-1.091,0c3.322,3.176,5.817,7.104,7.52,11.351
		c-3.286-0.978-0.211,4.031-0.148,5.456c-2.428,0.399-2.336,9.47-2.594,11.912c0.226,0,0.452,0,0.678,0
		c0.311-3.766,0.918-7.474,1.651-11.175c2.213,0.36,0.027-4.303-0.561-5.573c2.869,1.105,2.437,0.482,0.96-2.54
		C262.025,34.89,259.964,31.939,257.339,29.004"/>
	<path fill-rule="evenodd" clip-rule="evenodd" d="M261.704,57.723c-1.858,0.44-1.451,10.479-1.519,12.683
		c-0.104,3.325-0.208,6.649-0.312,9.972c-0.027,0.871-0.687,5.507-0.087,6.094c0.91,0.888,0.838-5.849,0.847-6.578
		c0.032-2.626,0.154-5.249,0.238-7.871C261.023,67.294,261.085,62.413,261.704,57.723"/>
	<path fill-rule="evenodd" clip-rule="evenodd" d="M287.799,60.642c-2.936-0.122-2.158,7.646-2.889,10.024
		c-1.62,5.27-3.477,10.466-4.954,15.805c3.964,0.809,4.442-6.261,5.375-9.266c1.248-4.021,2.242-8.091,3.146-12.199
		c2.586,1.046,1.921-1.794,1.77-3.48c1.447,3.021,9.22,1.493,12.089,1.004c4.021-0.684,7.688-2.421,10.972-4.807
		c-5.557,0-10.233,2.32-15.747,2.8c-4.631,0.403-6.463-3.094-10.439-2.8C287.293,58.708,287.519,59.68,287.799,60.642"/>
	<path fill-rule="evenodd" clip-rule="evenodd" d="M200.075,29.004c-2.347,2.593-4.492,5.32-5.574,8.697
		c-13.125-9.764-27.219-5.689-41.105-0.723c-2.741,0.98-5.791,1.436-8.67,1.696c-3.706,0.336-6.309-0.528-4.231,3.759
		c1.702,3.512,4.826,6.204,7.572,8.877c1.627,1.582,3.236,3.303,5.034,4.702c2.396,1.862,3.684,1.71,6.753,1.71
		c-6.646-4.486-12.045-10.007-17.162-16.128c6.554-0.44,13.274-3.011,19.3-5.441c7.674-3.097,16.601-2.889,24.34-0.19
		c2.44,0.849,5.153,2.221,7.019,4.01c1.255,1.202,1.58,3.422,3.862,2.739c2.59-0.771,0.017-2.799-1.074-3.787
		c-1.163-1.051,5.501-8.686,6.53-9.921C201.83,29.004,200.903,28.882,200.075,29.004"/>
	<path fill-rule="evenodd" clip-rule="evenodd" d="M189.253,57.723c-4.337,2.643-9.566,4.952-14.739,4.952
		c-7.203,0-12.301-4.952-19.172-4.952c6.691,5.102,14.616,8.338,23.118,6.927c3.576-0.592,6.857-1.859,10.071-3.508
		c2.184-1.118,4.355-4.06,6.384-1.857c-0.867,2.067-1.272,4.145-2.508,5.985c-1.436,2.142-4.552,6.163-6.576,7.313
		c-2.521,1.433-7.676,1.671-10.604,1.972c-4.178,0.428-8.339,0.66-12.535,0.836c-9.143,0.379-18.267,1.099-27.402,1.602
		c-1.449,0.08-3.489-0.35-4.128-0.427c-0.847-0.103-2.828-0.108-4.423,0.146c-1.917,0.309-8.535-0.097-6.782,2.891
		c-1.75-0.265-5.751,0.536-3.392,2.77c-2.799,1.484-4.697,1.818-7.224,4.1c1.417,0,11.877-1.812,10.733-4.629
		c3.882-0.432,4.307-3.17,8.05-2.858c-1.513,3.134,6.917,0.164,8.132,0.11c7.378-0.326,14.795-0.868,22.181-0.88
		c-2.797,1.637-5.607,2.462-7.313,5.515c1.304,0.252,2.596-0.221,3.628,0.204c-2.593,1.964-0.958,2.516,1.563,2.538
		c-0.59-0.623-0.922-0.93-2.183-0.942c2.719-1.677,0.061-3.003-1.975-2.389c2.037-1.627,5.693-4.955,8.418-5.052
		c3.787-0.133,7.605-0.182,11.367-0.67c3.551-0.459,7.04-1.279,10.534-2.037c2.036-0.439,3.794,0.012,5.713-1.44
		c-0.36,1.456-3.07,3.095-4.275,4.481c-2.051,2.357-3.835,5.113-4.924,8.049c2.762,0.817,6.223-7.21,8.493-9.26
		c-1.513,2.896-2.612,6.054-3.244,9.26c2.708,0.834,2.406-2.337,2.98-4.216c0.624-2.034,1.548-3.959,2.593-5.811
		c3.514,1.113-4.192,9.229-0.413,10.026c-0.463-3.273,2.551-6.498,2.388-9.731c-0.038-0.731-2.042-0.217-1.399-1.37
		c0.544-0.98,0.336-1.053-0.576-1.105c-0.521-0.92,0.419-0.484-0.471-0.649c-0.478-0.631,4.85-11.635,5.056-2.771
		c0.066,2.833,0.436,5.718,1.019,8.491c0.613,2.917,0.768,8.11,4.688,7.136c-2.273-6.412-2.229-12.628-3.391-19.107
		c-0.395-2.206-1.074-2.971-0.605-5.263c0.37-1.8,2.028-2.671,2.021-4.378C195.17,57.723,192.211,57.723,189.253,57.723
		 M188.989,73.94C189.044,73.846,189.409,73.237,188.989,73.94"/>
	<path fill-rule="evenodd" clip-rule="evenodd" d="M197.627,53.447c-0.986-3.031-6.81,3.103-8.375,4.275
		c2.418,0,9.665,1.635,9.053-1.976c-1.046,0.59-2.188,1.028-3.391,1.091C196.03,55.846,197.358,54.947,197.627,53.447"/>
	<path fill-rule="evenodd" clip-rule="evenodd" d="M226.996,29.004c-1.215,0.001-3.798,2.115-1.709,2.652
		c-1.071,1.892-6.269,9.036-4.217,10.262c-0.728,0.909-0.441,3.632,0.03,4.512c0.905,1.691,2.848,3.058,4.093,4.876
		c1.182,1.727,2.834,6.108,4.664,6.417c-1.946-4.332-6.176-7.72-7.902-11.618c-0.049-0.11-0.523-3.181-0.56-2.948
		c0.181-1.128,2.95-4.009,0.472-3.213c1.055-3.604,3.774-6.483,5.307-9.731c-0.281,0.034-0.874-0.058-1.267,0
		C226.251,29.83,226.593,29.322,226.996,29.004"/>
	<path fill-rule="evenodd" clip-rule="evenodd" d="M229.856,57.723c-0.295,0-0.588,0-0.884,0c2.371,5.495,4.003,11.231,5.573,16.998
		c0.927,3.406,1.627,6.84,2.217,10.318c0.073,0.429,0.635,2.792,1.263,1.138c0.659-1.741-2.221-9.699-2.798-11.963
		C233.795,68.593,232.038,63.097,229.856,57.723"/>
	<path fill-rule="evenodd" clip-rule="evenodd" d="M237.612,86.471c-0.324,0-0.648,0-0.972,0c1.458,1.363,1.811,3.611,2.27,5.838
		c0.155,0.756,0.852,3.185,0.139,3.426c-2.471,0.838-4.982,1.921-7.157,3.385c-2.029,1.365-5.951,4.354-5.795,7.165
		c0.087,1.552,0.868,3.311,0.724,4.688c-0.151,1.44-1.304,2.676-1.475,4.216c5.339,1.448,2.926-8.933,4.143-10.54
		c5.063-6.691,14.833-8.721,22.779-8.521c5.722,0.144,12.574,0.693,16.454,5.586c1.746,2.203,1.575,3.672,0.886,6.281
		c-1.051,3.973-2.251,7.193,2.918,7.193c-2.319-5.297,1.98-10.291-1.739-15.096c-1.675-2.166-4.09-3.482-6.62-4.408
		c-2.871-1.052-2.978-0.908-3.376-3.968c-0.219-1.681,0.474-4.862-1.003-5.246c0.063,2.676,0.114,5.364,0.415,8.02
		c-6.423-1.521-13.664-1.275-19.935,0.827C239.358,92.799,239.517,87.712,237.612,86.471"/>
	<path fill-rule="evenodd" clip-rule="evenodd" d="M189.4,86.471c-0.246,0-0.492,0-0.737,0c0.382,0.989,1.083,1.813,1.976,2.388
		c-1.611,1.381-3.412,2.469-5.102,3.745c0.157-2.066,0.379-4.081,0.679-6.133c-5.146-1.471-0.064,9.779-5.073,8.167
		c0.638-1.872-1.084-1.454-2.24-0.53c0.5-2.637,1.262-5.15,2.27-7.637c-3.636-1.102-4.098,5.984-4.423,8.521
		c-3.119-2.18-1.868,9.049-3.096,10.542c-1.925,2.338-4.237,3.721-7.196,4.348c-0.475,1.289-2.778,0.53-4.201,0.399
		c-2.561-0.233-4.458,2.697-5.735,1.575c-1.806-1.583-0.882-9.177-0.944-11.281c-0.141-4.746,0.127-9.397,0.739-14.104
		c-0.256,0-0.512,0-0.768,0c0.542,3.994-0.509,9.978-0.487,14.537c0.014,2.991-0.997,8.13,0.84,10.821
		c2.041,2.986,2.177-0.086,4.6-0.943c2.106-0.751,4.973,0.109,7.314-0.621c2.095-0.652,4.846-1.841,6.221-3.654
		c1.769-2.335,0.549-4.424,0.796-7.373c0.056-0.676,0.244-4.407,1.387-3.834c0.832,0.419-0.153,5.054-0.196,6.019
		c-0.116,2.611-0.855,14.677,2.555,13.767c-0.415-3.651-3.022-20.137,1.975-21.111c-0.24,1.89,1.44,1.838,2.802,1.121
		c-0.041,3.5-0.138,7.542,0.825,10.94c0.536,1.896,2.183,3.437,2.212,5.395c0.094-4.205-0.868-9.264-0.974-14.035
		c-0.102-4.602,1.942-5.404,5.505-8.032C191.936,88.72,189.899,87.235,189.4,86.471"/>
	<path fill-rule="evenodd" clip-rule="evenodd" d="M200.104,86.471c-0.812-0.184-1.848,0-2.683,0
		c1.424,4.522,3.722,8.978,6.813,12.589c-2.683-2.151-4.864-4.681-6.547-7.679c-2.51-4.477-2.896-2.773-0.751,1.356
		c2.322,4.472,6.355,6.131,9.244,9.715c1.555,1.928,0.685,4.215,1.003,6.958c0.271,2.339,0.559,6.776,3.803,5.778
		c-1.526-3.796-2.248-7.828-1.768-11.912c0.235-2.007,2.77-5.989,1.238-7.606c-1.249,0.83-1.974,2.42-2.329,3.922
		C204.628,95.826,201.856,91.304,200.104,86.471"/>
	<path fill-rule="evenodd" clip-rule="evenodd" d="M178.579,115.188c-0.526-0.142-1.22,0-1.77,0
		C177.347,119.724,179.297,120.252,178.579,115.188"/>
	<path fill-rule="evenodd" clip-rule="evenodd" d="M210.984,115.188c-0.697-0.17-1.575,0-2.299,0
		c1.593,4.051,4.388,7.34,8.021,9.717c1.319,0.863,3.456,0.888,4.51,1.606c1.166,0.793,1.665,3.691,3.038,5.102
		c-4.958,3.249-8.497,6.517-10.615,12.266c2.534,0.658,7.672-10.99,12.267-11.116c-0.722,0.567-1.106,1.344-1.712,1.977
		c0.187-0.021,0.375-0.041,0.562-0.061c-3.516,2.198-6.543,5.527-8.463,9.2c2.119,0.295,5.001-5.016,6.811-6.547
		c2.597-2.196,5.001-3.871,8.434-3.332c-3.727,2.559-6.513,5.799-8.434,9.879c1.842,0.123,3.962-4.561,5.618-5.971
		c1.623-1.382,3.539-2.855,5.205-3.936c0.325,2.782-4.441,6.953-5.456,9.906c1.551,0.392,3.68-2.916,4.513-4.247
		c-0.502,1.403-0.979,2.813-1.386,4.247c2.752,0.851,5.75-8.582,7.726-10.557c-0.384,3.35-1.322,7.638-2.389,10.557
		c0.992,0,4.209,0.554,4.225-0.528c0.022-1.511,0.073-3.014,0.257-4.515c6.015,3.41,13.396,3.219,19.197-0.501
		c-0.644,1.854-1.314,3.696-1.976,5.544c3.23,0.58,3.192-1.298,4.084-3.761c0.719-1.984,1.528-3.933,2.197-5.938
		c0.073,0.309,0.19,0.601,0.264,0.911c1.344-0.483,3.016-0.426,4.483-0.412c-0.197-0.137-0.394-0.273-0.59-0.412
		c2.192-0.659,4.263-2.21,5.485-4.158c0.981-1.566,0.478-4.684,1.297-5.778c0.496-0.666,3.218-1.241,4.129-2.094
		c1.891-1.774,3.063-4.604,3.774-7.048c-2.47-0.724-2.699,2.857-4.069,4.275c-1.151,1.193-2.854,1.875-4.364,2.389
		c-1.067-4.069-1.341-6.664-5.985-6.664c1.862,2.915,3.834,6.683,3.656,10.202c-0.123,2.404-0.967,4.818-3.244,5.898
		c-3.595,1.703-6.772-1.848-9.981-3.099c-5.084-1.98-9.784-2.39-15.127-1.384c-3.461,0.649-6.043,2.858-9.422,3.734
		c-3.635,0.941-8.178,1.648-10.188-2.188c-2.322-4.43,0.351-5.43,1.342-9.271c0.421-1.631-0.81-2.704,0.795-3.893
		c-3.201-0.958-5.692,7.402-5.631,9.672C216.802,122.858,212.994,120.128,210.984,115.188 M241.947,128.753
		c6.094,1.106,12.499-0.557,18.724,2.359c-1.222,4.188-7.371,5.157-10.999,5.275c-1.729,0.058-4.572,0.256-6.163-0.529
		c-2.671-1.32-0.921-1.722-0.796-4.658c0.083-1.956-0.272-3.51-2.86-1.151C240.517,129.542,241.221,129.159,241.947,128.753
		 M236.463,134.679c-1.161,1.673-2.281,3.382-2.861,5.366C232.638,138.6,235.337,135.862,236.463,134.679 M227.734,133.439
		c-0.256,0.068-0.512,0.141-0.768,0.208C227.222,133.13,227.339,133.467,227.734,133.439"/>
	<path fill-rule="evenodd" clip-rule="evenodd" d="M277.244,90.156c0.777,4.607,4.176,8.873,5.143,13.639
		c0.777,3.834,0.63,7.639-0.454,11.394c4.03,1.22,2.574-10.207,2.035-12.588c-0.637-2.817-1.643-5.648-2.699-8.331
		c-1.006-2.559,0.461-5.169,1.225-7.799c-3.099-0.965-2.993,1.628-3.628,3.891C278.099,89.168,277.926,90.123,277.244,90.156"/>
	<path fill-rule="evenodd" clip-rule="evenodd" d="M56.766,123.712c-1.434,1.618,1.091,0.948,1.091,2.535
		c0,2.355-0.761,4.393-1.696,6.521c-1.345,3.067-0.395,3.114,0.797,5.714c0.577,1.258,1.672,8.213,2.108,3.922
		c0.229-2.244-1.636-3.795-2.271-5.721c-0.77-2.337-0.047-2.872,0.885-4.953C58.946,128.906,59.918,125.737,56.766,123.712"/>
	<path fill-rule="evenodd" clip-rule="evenodd" d="M56.146,124.184c2.384-4.296,12.812-7.101,17.221-8.995
		c-17.18,0-28.045,15.873-37.42,28.69c3.802,0,3.858-0.573,5.823-3.688c1.162-1.84,2.399-3.571,3.79-5.248
		C48.855,130.971,51.972,127.193,56.146,124.184"/>
	<path fill-rule="evenodd" clip-rule="evenodd" d="M73.368,115.188c7.193-3.739,14.011-8.234,20.552-13.031
		c2.998-2.197,5.711-4.457,8.384-7.013c3.14-3.004,7.221-5.395,9.957-8.674c-4.744,0-8.021,4.398-11.559,7.401
		c-3.995,3.391-8.068,6.676-12.296,9.772c-6.474,4.745-13.264,8.609-20.759,11.544C69.554,115.188,71.46,115.188,73.368,115.188"/>
	<path fill-rule="evenodd" clip-rule="evenodd" d="M76.316,126.305c-0.609,0.387-1.155,1.023-1.622,1.563
		c2.019,0.338,4.343,0.291,6.458,0.354c-0.669,0.948-1.68,1.361-2.434,2.257c-1.493,1.771,0.761,0.755,1.018,1.547
		c-0.001-0.004,0.599,0.065,0.737,0.383c0.289,0.661-0.645,3.178-0.753,3.981c-0.332,2.473-0.403,5.012-0.073,7.489
		c0.156,0,0.314,0,0.471,0c-0.47-2.832,2.71-12.884-1.297-12.679c1.125-0.877,2.4-1.729,2.861-3.126
		c-1.831-0.589-3.903-0.524-5.839-0.678c7.485-6.894,17.212-9.204,26.626-12.208C93.771,115.188,82.495,120.246,76.316,126.305"/>
	<path fill-rule="evenodd" clip-rule="evenodd" d="M112.468,111.385c5.526-3.512,6.082,4.685,9.377,3.804
		c-1.317-3.103-3.695-5.628-6.989-5.308c-4.877,0.477-10.958,3.728-15.54,5.308C103.948,115.188,108.33,113.43,112.468,111.385"/>
	<path fill-rule="evenodd" clip-rule="evenodd" d="M121.845,115.188c-0.517-0.085-1.096,0-1.622,0
		c4.175,6.647,14.272,1.714,17.427,8.405c1.625,3.448,0.216,7.754,2.418,11.057c1.875,2.812,5.783,4.674,8.95,5.497
		c2.264,0.59,4.582,0.578,6.901,0.752c0.874,0.063,3.018-0.219,3.787,0.297c0.457,0.306-0.083,1.922,0.383,2.21
		c1.15,0.71,3.653,0.15,4.719-1.147c1.417-1.729,1.643-4.594,3.051-6.577c1.419-1.999,7.205-7.507,9.569-4.557
		c2.2,2.748,4.454,2.432,5.366,6.797c0.255,1.229,0.603,8.429,1.71,5.072c0.652-1.973-0.54-5.572-1.224-7.4
		c-2.852-7.623-11.748-6.86-15.843-0.438c-0.889,1.396-3.579,9.336-6.14,8.339c-0.774-0.301-0.339-1.483-0.735-2.343
		c-0.758-1.643-3.75-1.032-5.265-1.106c-8.375-0.41-15.317-3.415-15.629-12.221c-0.126-3.587-1.784-7.397-5.499-8.625
		C130.497,117.987,123.659,120.015,121.845,115.188"/>
	<path fill-rule="evenodd" clip-rule="evenodd" d="M161.623,144.145c1.167-0.736-0.775-0.404-1.416-0.206
		c-1.25,0.384-2.449,1.135-3.155,2.269c-1.399,2.244-2.891,4.549-5.351,5.692c-0.911,0.421-2.056,0.595-3.053,0.545
		c-1.167-0.059-0.354-2.135-1.061-2.521c-2.553-1.396-7.135,3.557-8.793,5.002c-3.375,2.941-4.891,7.585-8.752,9.8
		c-2.116,1.215-4.172,1.591-6.546,1.326c-1.171-0.13-1.019-1.643-2.403-0.84c-1.332,0.771-1.801,2.573-2.108,3.967
		c-0.54-1.286-1.09-2.599-1.799-3.805c-0.391-0.666-2.834-3.721-2.314-1.429c0.605,2.668,2.017,9.65,5.293,8.711
		c-0.919-1.651-0.378-3.218,0.329-4.864c1.463-3.414,0.683-0.903,2.826-0.856c2.726,0.063,5.278-0.135,7.667-1.782
		c5.857-4.04,8.012-12.289,15.804-14.286c-0.025,2.674,2.486,2.466,4.379,2.21c3.644-0.485,5.791-6.062,8.625-7.988
		c-0.97,2.624,2.403,4.15,4.583,4.555c4.23,0.784,8.431,1.49,11.781,4.469c1.708,1.516,8.605,8.586,9.967,4.716
		c0.419-1.191-1.382-5.976-1.517-7.456c-0.225-2.483-0.145-5.003-0.105-7.492c-3.048-0.329,0.004,12.899,0.796,15.037
		c-2.541-0.304-3.924-1.777-5.705-3.436c-2.824-2.63-6.138-4.65-9.85-5.751c-2.555-0.756-5.986-0.47-8.183-2.121
		C160.411,146.743,159.985,144.488,161.623,144.145"/>
	<path fill-rule="evenodd" clip-rule="evenodd" d="M81.889,150.749c3.297,4.156,9.499,3.967,13.726,6.5
		c3.14,1.883,0.645,1.864,0.502,4.438c-0.119,2.147,3.851,5.223,2.727,6.429c4.404,3.624,7.997-0.15,12.591,0.06
		c-0.688,1.749,3.887,3.977,5.396,4.48c-0.688-1.303-1.885-2.367-3.317-2.786c-1.798-0.525-1.006-1.734-1.313-1.901
		c-2.934-1.601-7.888,2.397-12.001,0.267c0.154-2.067-3.635-4.24-3.391-6.96c0.193-2.159,2.532-2.49-0.708-4.689
		c-3.343-2.267-8.333-1.601-11.736-4.008c-2.95-2.089-3.729-5.298-4.247-8.698c-0.157,0-0.315,0-0.471,0
		C79.977,146.221,80.609,148.753,81.889,150.749"/>
	<path fill-rule="evenodd" clip-rule="evenodd" d="M117.982,172.655c2.972,9.563,3.434,18.934-0.324,28.69
		c3.506,0,3.404,0.137,4.068-3.081c0.297-1.438,0.524-2.948,0.666-4.411c0.453-4.692,0.389-9.223-0.34-13.885
		c2.358,2.024,4.307,3.581,4.806,6.574c0.375,2.242,1.697,3.694,3.538,4.866c2.431,1.547,2.625,0.522,2.005,2.889
		c-0.534,2.038-3.172,5.057-4.276,7.048c1.19-0.264,5.299-6.351,5.397-7.902c0.179-2.884-2.243-1.985-4.129-3.893
		c-2.327-2.354-1.647-5.298-4.128-7.696c-1.261-1.218-2.823-2.041-3.597-3.479C120.559,176.318,121.569,171.611,117.982,172.655"/>
	<path fill-rule="evenodd" clip-rule="evenodd" d="M116.832,172.655c-1.069,0.48,4.318,17.422-0.486,16.991
		c-2.936-0.262-6.007,0.323-8.434-0.375c-3.032-0.875-5.536-2.656-8.655-1.46c-5.166,1.979-5.52,5.668-8.315,9.612
		c-1.504,2.122-3.819,2.107-5.721,3.922c4.519,0.333,6.879-4.225,8.507-7.652c3.208-6.754,8.514-5.074,14.317-3.816
		c0.475,0.102,0.407,0.626,1.739,0.706c1.349,0.081,2.865-0.509,4.275-0.471c2.004,0.052,3.902,1.329,4.408-1.033
		C119.529,184.127,119.209,177.189,116.832,172.655"/>
	<path fill-rule="evenodd" clip-rule="evenodd" d="M59.007,143.879c-0.314,0-0.629,0-0.944,0c0.108,2.437,0.448,4.682-1.715,6.021
		c-2.584,1.602-5.208,3.148-7.753,4.809c-3.336,2.178-7.414,5.95-11.542,6.669c-3.142,0.548-4.38-2.351-5.028-4.776
		c-0.677-2.544,5.868-10.357,7.461-12.723c-4.089,0-4.251,0.924-6.488,4.357c-1.363,2.089-2.382,4.089-3.391,6.271
		c-2.642,5.727-4.822,11.984-6.133,18.148c4.112,0.655,3.537-3.174,4.392-6.364c0.808-3.019,2.096-5.872,3.452-8.672
		c1.607,5.386,5.913,5.466,10.203,3.008c4.092-2.348,7.819-5.37,11.807-7.894c1.141-0.724,4.768-2.153,5.384-3.165
		C59.416,148.414,58.984,145.422,59.007,143.879"/>
	<path fill-rule="evenodd" clip-rule="evenodd" d="M26.334,172.655c-3.892-0.813-3.489,2.655-3.98,5.633
		c-0.495,2.993-0.899,6.061-1.021,9.095c-0.113,2.788-1.165,15.344,3.35,13.963C22.804,191.927,24.316,181.915,26.334,172.655"/>
	<path fill-rule="evenodd" clip-rule="evenodd" d="M39.456,218.358c-2.677-1.535-4.913,0.51-7.548,1.031
		c2.297-0.226,4.593-0.524,6.9-0.647c-3.394,2.593,1.971,6.793,3.668,9.015c0.33,0.431,10.942,2.53,12.196,2.308
		c-1.616-0.72-3.247-1.376-4.984-1.739c-1.697-0.354-4.347,0.253-5.838-0.354c-1.365-0.556-2.754-2.861-3.627-3.996
		C38.321,221.508,37.904,221.032,39.456,218.358"/>
	<path fill-rule="evenodd" clip-rule="evenodd" d="M54.673,230.064c-0.624-0.078-1.289,0-1.917,0
		c5.956,3.291,13.018,3.049,16.809,9.405c-6.913-0.041-15.585,1.01-22.235-1.06c-1.907-0.596-4.679-0.855-5.94-2.285
		c-2.333-2.647-3.185-6.691-7.239-6.061c0.125,0.202,0.243,0.408,0.353,0.618c-3.787-0.784-7.584-0.618-11.441-0.618
		c-0.116,4.139,10.002,1.05,12.474,2.389c1.674,0.906,3.428,4.489,4.983,5.867c1.824,1.614,3.548,2.674,5.897,3.302
		c11.988,3.201,25.575,2.57,37.803,1.536c5.695-0.481,11.28-0.433,16.955-1.417c2.662-0.463,6.023-1.551,8.551,0.088
		c2.233,1.448,3.636,4.236,6.606,5.72c4.255,2.126,9.339,3.369,13.88,4.814c10.753,3.423,21.763,5.255,33.004,6.066
		c12.224,0.882,23.589-2.104,35.636-2.787c0.857-0.049,2.765-1.05,3.317-0.884c1.297,0.389,2.337,1.537,3.569,1.871
		c2.117,0.576,4.421-0.153,6.192-1.269c2.536-1.594,4.273-4.387,6.397-6.366c2.629-2.452,5.877-4.121,9.202-5.191
		c9.266-2.979,19.255-1.571,28.896-0.943c7.519,0.491,20.03-1.729,24.755,5.115c3.272,4.741,20.691,0.985,25.049-1.43
		c2.248-1.244,2.663-4.824,4.631-5.927c1.752-0.982,6.786-0.239,8.904-0.471c3.234-0.352,2.744-1.04,5.169-2.672
		c0.4-0.27,0.801-0.539,1.201-0.808c-0.842,3.123,4.179,3.557,6.219,3.775c4.328,0.462,6.922-0.655,0.799-1.77
		c-1.24-0.227-2.469-0.481-3.683-0.832c-2.563-0.741-0.644-0.333-1.034-1.734c-0.377-1.353,1.941-3.789-1.496-1.99
		c-1.93,1.008-3.688,3.277-5.583,4.056c-2.57,1.053-6.726,0.66-9.524,1.148c2.688-3.35,5.487-4.749,6.458-9.258
		c-3.311-0.854-2.559,1.082-3.862,3.036c-1.036,1.55-3.212,2.842-4.482,4.365c-2.869,3.44-3.713,5.735-7.961,7.43
		c-6.119,2.44-14.37,2.57-19.33-1.945c-2.354-2.146-5.64-3.361-8.801-3.48c-1.616-0.063-2.563,0.341-4.335,0.207
		c-2.335-0.175-4.728-0.329-7.048-0.561c-2.263-0.227-4.52-0.666-6.795-0.89c-1.862-0.183-9.178,0.277-10.455-1.026
		c-0.444-0.455-0.362-2.748-0.812-3.523c-1.134-1.959-2.587-4.271-5.115-3.612c1.294,2.053,4.393,4.571,3.553,7.254
		c-0.738,2.355-8.5,2.984-10.513,3.257c-3.258,0.438-5.177-0.534-6.914-3.375c-0.72-1.177-1.145-2.487-1.534-3.805
		c-1.014-3.431-0.905-3.331-4.645-3.331c0.834,2.777,1.269,5.698,1.782,8.55c0.495,2.754-1.33,3.972-3.05,6.105
		c-2.388,2.961-4.97,7.95-8.817,9.11c-3.231,0.973-4.828-1.916-8.152-1.916c-3.428,0-7.557,2.148-11.073,2.711
		c-12.672,2.027-25.272,1.602-37.991,0.31c-11.476-1.166-24.042-3.959-33.618-10.73c-1.831-1.298-3.745-2.592-4.439-4.616
		c-0.921-2.683-0.323-6.811,0.146-9.523c-4.65,0-4.787,0.438-4.873,5.198c-0.04,2.195-7.562,2.048-9.821,2.308
		c-6.952,0.796-13.969,1.321-20.957,1.692c-2.146,0.115-6.339,0.93-8.138-0.059c-1.44-0.792-1.514-2.911-3.125-3.256
		c-1.21-0.262-3.138-2.531-4.749-3.112C59.739,231.887,57.05,231.627,54.673,230.064"/>
	<path fill-rule="evenodd" clip-rule="evenodd" d="M24.683,201.346c-0.709-0.203-1.672,0-2.418,0
		c0.767,4.66,2.346,8.312,3.804,12.443c0.876,2.48,1.792,4.382,2.787,6.648c1.543,3.515,3.861,10.315,8.183,9.627
		C31.378,221.976,26.291,211.191,24.683,201.346"/>
	<path fill-rule="evenodd" clip-rule="evenodd" d="M16.191,220.48c-1.49,0.578-0.865,1.54-0.324,2.803
		c1.109,2.585,0.494,2.812-1.917,3.788c-4.104,1.664-9.07,0.979-12.886,2.993c3.929,0,17.422,2.171,17.428-5.101
		c1.406,0.972,2.532,2.209,3.553,3.567c1.905,2.534,5.043,1.533,8.182,1.533c-1.026-0.075-4.063,0.34-4.924-0.147
		c-0.96-0.545-2.026-2.856-2.77-3.77C20.762,223.971,18.538,222.011,16.191,220.48"/>
	<path fill-rule="evenodd" clip-rule="evenodd" d="M11.03,230.064c-2.873,0-5.746,0-8.619,0c-0.977,0-3.601,0.688-1.79,1.829
		C2.128,232.841,9.174,230.425,11.03,230.064"/>
	<path fill-rule="evenodd" clip-rule="evenodd" d="M164.896,201.346c1.312-0.251,1.801-3.376,3.067-4.658
		c2.004-2.032,5.127-2.505,7.874-2.242c4.169,0.397,5.885,3.619,2.417,6.9c3.3,0.443,3.719-6.965-0.407-7.315
		C171.272,193.471,166.842,194.447,164.896,201.346"/>
	<path fill-rule="evenodd" clip-rule="evenodd" d="M165.722,201.346c-0.987,0.165-1.725,1.811-2.212,2.978
		c-0.919,2.202-0.494,2.729-2.447,3.184c-2.918,0.681-6.579-0.73-9.791,0.118c-6.172,1.632,0.848,1.594,3.309,1.948
		c3.771,0.538,7.943,0.8,11.111,3.064c-5.379,1.593-10.618,3.52-14.906,7.283c-0.907,0.796-0.848,1.596,0.339,1.828
		c0.858,0.169,3.012-1.785,3.451-2.064c3.14-1.997,7.154-3.334,10.763-4.306c5.512-1.48,9.454-0.481,14.714-0.233
		c0.409,0.02,0.786-0.179,0.973-0.179c0.896-0.002,3.276-0.316,5.017-0.052c5.276,0.803,10.941,2.232,16.187,2.676
		c3.737,0.315,7.411-1.305,10.792,1.385c1.631,1.298,2.931,3.862,3.887,5.688c1.499,2.863,1.341,5.401,4.762,5.401
		c0.439,0,0.878,0,1.318,0c-0.336-1.345-1.136-3.259-0.355-4.47c0.679-1.048,2.038-2.319,2.169-3.533
		c0.376-3.449,0.87-7.06,1.9-10.307c-2.688,3.601-5.167,6.759-8.994,9.198c-4.879-6.697-9.416-5.872-16.69-6.312
		c-5.395-0.323-10.804-1.31-16.155-2.007c-3.093-0.405-3.757,0.09-3.393-3.099c0.316-2.756,0.79-5.47,1.325-8.19
		c-4.324-0.937-3.807,7.643-4.01,10.82c-2.667-0.789-5.334-1.546-8.021-2.27c2.458-3.184,6.219-5.399,8.758-8.551
		c-2.454-0.331-5.156,3.19-6.665,4.851c-2.296,2.525-2.352,3.618-5.771,2.693c-4.05-1.097-4.292-0.823-2.56-4.301
		C165.043,203.555,165.484,202.497,165.722,201.346"/>
	<path fill-rule="evenodd" clip-rule="evenodd" d="M128.863,201.346c-1.44,0.302-1.811,1.953-3.126,2.771
		c-1.463,0.911-3.762,0.957-5.426,0.975c0.325-1.233,0.584-2.494,0.857-3.745c-4.253,0-3.728,0.626-5.126,4.653
		c-0.925,2.659-1.854,5.322-2.749,7.994c-1.795,5.368-2.715,10.51-3.538,16.071c2.477,0,3.342,0.434,4.423-1.149
		c0.914-1.338,0.811-4.186,1.215-5.813c0.88-3.547,1.78-7.082,2.799-10.592c0.647-2.229,1.287-4.46,1.918-6.694
		c0.147-0.522,2.573-0.156,3.327-0.284C126.048,205.09,127.461,203.49,128.863,201.346 M113.352,222.485
		C113.345,222.892,113.334,223.54,113.352,222.485"/>
	<path fill-rule="evenodd" clip-rule="evenodd" d="M95.777,205.061c-1.514-2.71-9.107-0.606-11.766-0.531
		c0.458-1.347,1.364-2.539,2.655-3.184c-1.151-0.225-4.387,2.1-3.421,3.715c0.714,1.193,4.706-0.02,5.868-0.311
		c1.232-0.309,4.618-0.857,5.662,0.222c1.063,1.1,0.014,4.769-0.384,6.236c-0.462,1.708-1.216,5.437-0.177,7.092
		c1.451,2.314,5.188,1.643,7.547,1.708c2.556,0.072,7.556,1.866,9.673-0.146c-2.452-0.352-4.694-0.401-7.136-0.665
		c-2.001-0.213-6.487,0.506-8.109-0.426C91.692,216.191,96.998,208.772,95.777,205.061"/>
	<path fill-rule="evenodd" clip-rule="evenodd" d="M261.35,143.879c-3.908-0.892-4.921,6.146-6.546,9.156
		c-0.732,1.354-3.34,5.223,0.235,4.937c-0.99,5.417-5.554,10.251-8.522,14.684c1.267,0,6.341,0.65,6.341-0.605
		c0-1.351,1.046-3.567,2.801-3.67c1.208-0.068,2.226,1.377,2.979,2.095c2.285,2.181,2.205,2.181,5.572,2.181
		c-2.552-2.601-5.633-7.538-9.376-8.168c1.465-2.754,1.971-4.926,2.241-7.902c0.039-0.432-0.582-0.825-0.531-1.208
		c0.175-1.315,1.651-2.979,2.138-4.275C259.583,148.701,260.457,146.285,261.35,143.879"/>
	<path fill-rule="evenodd" clip-rule="evenodd" d="M264.209,172.655c-1.199,0-2.398,0-3.597,0
		c7.833,8.832,18.388,14.248,28.603,19.815c-2.88,1.948-5.171,5.449-6.045,8.875c4.458-0.054,2.243-10.849,9.923-6.855
		c4.229,2.199,10.123,6.855,14.436,6.855c-4.349-6.851-14.169-9.79-21.021-13.511C278.492,183.485,270.733,179.123,264.209,172.655"
		/>
	<path fill-rule="evenodd" clip-rule="evenodd" d="M236.934,143.879c0.217,4.443,0.145,8.889-0.884,13.208
		c-4.56-2.424-4.834-9.116-2.537-13.208c-3.959-1.146-3.017,9.344-2.771,11.764c-2.933-3.258-2.338-7.689-0.679-11.764
		c-4.476-1.262-2.297,12.298-1.327,14.536c-1.873-0.854-3.466-2.339-4.6-4.041c-1.039-1.557-1.214-3.854-2.949-4.775
		c-1.162,2.288-1.958,4.876-2.359,7.401c-1.137-2.358-1.089-5.55-2.006-7.637c-1.079-2.46-1.109-1.177-2.979,0.972
		c0.161-2.217,0.597-4.387,1.416-6.456c-2.557-0.732-4.418,7.372-3.051,9.197c1.274,1.704,2.551-1.525,3.199-2.27
		c0.319,1.496,1.561,8.89,3.333,9.17c1.696,0.269,2.279-5.689,2.742-7.047c1.195,2.544,3.213,4.803,5.676,6.163
		c4.223,2.334,3.75,1.318,2.491-2.301c3.256,3.666,2.376,0.082,2.359-2.564c0.497,0.932,3.321,5.393,4.718,4.838
		c0.538-0.216,0.746-2.922,0.795-3.304c0.858,1.378,2.622,1.957,2.683-0.385c2.197,0.689,1.858-3.612,1.582-5.016
		c-0.231-1.173-0.383-2.324-0.49-3.504C240.974,143.307,240.66,143.879,236.934,143.879 M238.408,146.031
		c0.058-0.611,0.197-1.222,0.295-1.828c0.51,3.274,1.439,8.103,0.118,11.174c-0.215-0.059-1.05-0.397-1.268-0.502
		C238.002,151.921,238.355,149.029,238.408,146.031"/>
	<path fill-rule="evenodd" clip-rule="evenodd" d="M217.591,143.879c-1.506-0.247-2.277,0.941-1.917,2.24
		C216.426,145.542,217.09,144.762,217.591,143.879"/>
	<path fill-rule="evenodd" clip-rule="evenodd" d="M224.313,143.879c-1.907-0.27-2.653,2.631-2.564,4.216
		C223.207,147.144,223.767,145.466,224.313,143.879"/>
	<path fill-rule="evenodd" clip-rule="evenodd" d="M191.493,172.185c-0.206,0.275-0.515,0.037-0.736,0.471c0.462,0,0.924,0,1.386,0
		C192.112,172.613,191.537,172.068,191.493,172.185"/>
	<path fill-rule="evenodd" clip-rule="evenodd" d="M190.698,172.655c-3.903,9.493-8.792,18.363-10.439,28.69
		c3.719,1.158,3.265-3.646,3.952-6.162c0.793-2.908,1.838-5.759,2.874-8.587c1.137-3.101,2.374-6.168,3.761-9.164
		C191.359,176.322,194.215,171.862,190.698,172.655"/>
	<path fill-rule="evenodd" clip-rule="evenodd" d="M252.857,172.655c-3.804,0-5.758-0.795-7.992,2.3
		c-1.622,2.249-3.327,4.981-4.394,7.549c-0.809,1.946-0.68,4.604,1.003,1.682c-0.653,5.889-1.928,11.49-3.656,17.16
		c5.776,1.523,5.094-15.873,6.31-19.432c0.807-2.362,3.348-5.371,5.809-6.191c-0.615,4.597,0.094,9.708-0.709,14.154
		c-0.657,3.641-2.913,7.959-4.334,11.469C252.842,202.885,252.579,177.562,252.857,172.655"/>
	<path fill-rule="evenodd" clip-rule="evenodd" d="M247.756,201.346c-3.949-0.542-4.193,2.912-5.838,5.896
		c-1.782,3.232-3.87,6.29-6.017,9.289c-0.835-2.7-1.569-5.435-2.181-8.195c4.768-0.44,5.226-2.605,6.664-6.989
		c-2.739-0.607-2.811,0.711-3.467,2.873c-0.709,2.336-1.186,0.906-2.99,1.667c-1.226,0.518-1.68-2.091-1.68,1.102
		c0,2.258-0.243,4.968,0.338,7.14c1.064,3.974,4.05,17.276,9.098,15.938c-3.207-4.511-3.087-6.053,0.855-9.643
		c1.287-1.174,2.754-2.253,4.261-3.183c2.036-1.258,5.236-0.102,7.563,0.5c6.221,1.612,10.712,4.997,16.247,7.813
		c0.636,0.324,2.002,0.403,2.418,0.648c2.665,1.583,2.162,4.448,5.691,3.864c-0.375-1.446,1.094-7.534-0.706-8.374
		c-1.617-0.754-1.998,2.025-2.803,2.917c-6.645-6.91-17.084-11.121-26.509-11.822c3.989-3.265,8.651-4.873,13.594-5.998
		c4.085-0.933,3.621-3.437-0.767-2.625c-9.078,1.674-15.627,8.061-22.292,13.842c-0.138-0.088-0.276-0.177-0.414-0.265
		C242.189,212.414,244.998,206.982,247.756,201.346"/>
	<path fill-rule="evenodd" clip-rule="evenodd" d="M307.529,201.346c-1.093,0-2.185,0-3.275,0c1.781,2.161,2.74,4.802,4.779,6.724
		c1.896,1.788,4.775,2.266,3.536,5.351c-1.593,3.965-9.298,4.527-12.827,6.06c-1.831,0.794-5.218,3.703-6.988,1.888
		c-1.475-1.517-0.789-5.381-2.564-7.46c-3.188-3.732-7.586-6.843-5.927-12.562c-2.487-0.232-1.197,4.469-0.649,5.868
		c0.962,2.462,2.566,4.07,4.63,5.66c3.106,2.395,1.814,8.739,4.865,10.055c1.835,0.791,5.389-1.859,7.122-2.601
		c2.151-0.922,4.385-1.515,6.589-2.235c3.386-1.107,6.891-2.578,6.989-6.752c5.542,1.992,2.646,14.248,1.681,18.724
		c4.535,1.019,3.718-6.657,3.819-9.955c0.09-2.894,0.515-6.487-1.239-9.019c-1.493-2.158-3.853-2.291-5.84-3.747
		C310.167,205.835,308.892,203.451,307.529,201.346"/>
	<path fill-rule="evenodd" clip-rule="evenodd" d="M278.717,230.064c-0.876-0.111-1.829,0-2.713,0
		C276.412,233.853,281.486,233.938,278.717,230.064"/>
	<path fill-rule="evenodd" clip-rule="evenodd" fill="#FFFFFF" d="M256.809,7.42c-2.329-1.519-5.466-0.948-8.094-1.178
		c-1.796-0.157-2.941-2.146-1.047-3.069c-1.819,0.24-16.768,7.183-15.775,1.122c-3.709,0.779-7.358,2.87-9.896,5.68
		c-1.243,1.376-1.757,3.002-2.96,4.256c-1.492,1.555-3.879,2.34-5.551,3.837c-3.092,2.77-6.013,5.715-8.839,8.754
		c7.174-2.027,7.905,11.597,8.058,15.255c0.142,3.432-0.142,6.872-0.689,10.261c-0.384,2.38-0.629,3.037,1.979,3.278
		c1.244,0.115,2.418,0.105,3.509-0.517c1.5-0.854,1.873-3.564,3.361-3.922c2.555-0.615,1.85,2.582,0.929,3.922
		c-2.41,3.502-7.109,4.679-11.014,2.83c-0.663,2.227-1.613,4.29-2.417,6.457c-0.968,2.609-0.625,3.637-0.753,6.429
		c-0.097,2.147-0.153,5.186-1.489,6.928c-2.633,3.435-8.225,1.024-8.905-2.978c1.091,9.152,4.73,17.999,10.912,24.827
		c0.355-1.502,1.08-3.092,2.329-3.922c1.173,1.43,2.757,2.382,3.185,4.584c0.42,2.173-0.347,4.179-0.118,6.325
		c0.622,5.876,6.253,8.108,11.087,10.202c0.763-1.574,2.638-5.273,2.138-6.812c-1.375-4.218,0.063-6.369,3.096-9.287
		c1.62-1.561,3.801-2.629,5.808-3.597c1.103-0.534,2.24-0.957,3.398-1.352c1.376-0.467-0.363-0.896-0.346-1.065
		c0.021-0.2-0.766-0.716-0.707-1.329c0.114-1.208,0.192-2.41,0.162-3.624c-0.041-1.617-1.248-1.748-1.578-2.833
		c-1.261-4.15-1.253-9.625-2.586-14.151c-1.457-4.95-3.025-10.808-5.317-15.362c-2.467-4.897-7.716-9.021-8.196-14.124
		c-0.324-3.443,2.927-11.871,5.485-14.123c-2.784-1.556-6.607-4.455-8.021-7.401c-0.681-1.42-0.364-6.604,2.27-4.879
		c2.264,1.48,4.932-0.754,8.139,0.176c1.9,0.553,3.603,1.159,1.002,0.928c-2.85-0.251-4.586-1.254-7.46,0.207
		c1.382,1.122,4.646,5.353,6.501,5.088c3.07-0.44,5.923-2.289,9.122-2.762c5.611-0.833,12.166-0.256,16.163,3.749
		c-0.74-3.419-2.607-6.342-5.336-8.522c3.681,2.318,4.203,5.577,5.809,9.054c1.612-3.976-3.053-7.088-5.603-9.525
		c3.132,0.493,6.84,5.317,9.288,5.249c-1.957-2.964-5.994-4.976-9.258-6.074c0.391,0.116,0.813,0.183,1.209,0.293
		c-0.295-0.099-0.591-0.193-0.885-0.293c1.734,0.089,3.632,0.675,5.248,1.443c-1.2-0.29-2.402-0.574-3.598-0.883
		c3.084,1.037,5.687,2.999,7.666,5.572c0.48-0.919-0.091-2.014-1.001-2.859c0.795,0.672,1.217,1.041,1.68,1.975
		c1.551-2.889-4.483-8.506-7.077-7.46c0.647-1.184,2.1-0.43,3.272,0.178C251.295,11.013,253.905,7.893,256.809,7.42 M250.734,13.348
		c2.751-0.229,5.569,1.116,7.372,3.243C256.033,14.782,253.595,13.513,250.734,13.348 M232.039,8.717
		c-3.016,0.958-7.523,2.97-9.081,6.135c2.565-2.38,5.072-4.008,8.58-3.098c-2.57-0.025-5.17,0.84-7.077,2.595
		c1.927-1.357,5.537-2.617,7.696-1.354c-2.725-0.467-5.615,0.158-7.815,1.857c2.154-0.69,4.875-1.096,6.989-0.296
		c-3.248-0.354-7.282,0.412-9.938,2.389c0.327-0.044-0.719-0.01-0.796,0c1.552-1.069,1.01-4.923,2.271-6.898
		c1.332-2.089,4.307-4.729,6.9-4.688c-4.353,1.271-6.377,6.105-7.873,9.965c0.631-3.259,2.389-6.337,4.895-8.521
		c-2.852,1.653-5.792,5.815-5.13,9.201c1.388-2.886,5.461-9.562,9.347-7.904c-2.735,0.024-4.676,1.889-6.191,4.011
		C226.76,10.219,229.395,9.151,232.039,8.717 M223.517,16.003c2.44-0.682,5.279-0.486,7.283,1.146
		c-2.725-1.486-5.995-1.662-8.787-0.266C222.442,16.308,222.917,16.262,223.517,16.003 M223.665,18.566
		c1.441,0.656,2.664,1.803,3.508,3.154C226.071,20.597,224.875,19.569,223.665,18.566"/>
	<path fill-rule="evenodd" clip-rule="evenodd" d="M250.763,13.287c2.725,0.348,5.224,1.453,7.343,3.304
		C256.27,14.423,253.596,13.264,250.763,13.287"/>
	<path fill-rule="evenodd" clip-rule="evenodd" d="M232.098,8.717c-2.662,0.401-5.33,1.496-7.282,3.393
		c1.516-2.122,3.457-3.986,6.191-4.011c-3.886-1.657-7.959,5.019-9.347,7.904c-0.662-3.386,2.278-7.548,5.13-9.201
		c-2.506,2.184-4.264,5.262-4.895,8.521c1.496-3.859,3.521-8.694,7.873-9.965c-2.521-0.039-5.234,2.427-6.649,4.349
		c-1.5,2.034-0.903,6.124-2.521,7.238c0.077-0.01,1.123-0.044,0.796,0c2.656-1.977,6.689-2.743,9.938-2.389
		c-2.114-0.8-4.835-0.395-6.989,0.296c2.2-1.699,5.09-2.324,7.815-1.857c-2.16-1.263-5.769-0.003-7.696,1.354
		c1.906-1.755,4.506-2.62,7.077-2.595c-3.508-0.91-6.015,0.718-8.58,3.098C224.507,11.705,228.88,9.677,232.098,8.717"/>
	<path fill-rule="evenodd" clip-rule="evenodd" d="M225.287,15.645c-1.238,0.089-2.408,0.367-3.273,1.239
		c2.792-1.396,6.062-1.221,8.787,0.266C229.309,15.935,227.205,15.465,225.287,15.645"/>
	<path fill-rule="evenodd" clip-rule="evenodd" d="M223.842,18.597c0.651,0.704,2.282,2.056,3.332,3.124
		C226.354,20.411,225.191,19.342,223.842,18.597"/>
	<path fill-rule="evenodd" clip-rule="evenodd" fill="#666666" d="M246.607,21.219c-3.187-0.969-8.404-0.938-11.177,1.121
		C239.154,21.938,242.88,21.586,246.607,21.219"/>
	<path fill-rule="evenodd" clip-rule="evenodd" fill="#CCCCCC" d="M175.364,42.271c-6.252-2.076-12.586-0.985-18.96-0.088
		c-4.303,0.608-9.395-1.652-13.711-0.589c8.634,10.331,22.31,25.07,37.566,20.167c-2.918,0.36-4.591-0.925-2.005-3.421
		c1.989-1.917,5.178-1.532,7.431-3.449c3.478-2.96,3.654-4.696,0.016-7.402C182.438,45.068,178.709,44.154,175.364,42.271"/>
	<path fill-rule="evenodd" clip-rule="evenodd" d="M169.673,40.975c5.636,0.744,12.852,3.195,17.014,7.282
		c1.297,1.275,2.286,2.692,2.404,4.571c0.104,1.679-3.59,3.494-4.881,4.306c3.043,2.172,7.303-2.86,8.403-5.338
		c2.728-6.138-4.538-9.414-9.583-11.265c-9.374-3.436-18.252-2.267-27.911-0.82c-2.568,0.385-3.111,3.275,0.073,2.694
		C159.745,41.574,165.055,40.403,169.673,40.975"/>
	<path fill-rule="evenodd" clip-rule="evenodd" fill="#666666" d="M169.673,40.975c-1.96-0.242-4.002,0.035-5.956,0.264
		C165.704,41.121,167.684,41.033,169.673,40.975"/>
	<path fill-rule="evenodd" clip-rule="evenodd" fill="#666666" d="M161.83,38.792c6.308-0.713,11.905-1.068,18.078,0.728
		c4.081,1.187,11.686,3.608,13.4,8.045c1.396,3.611-5.175,12.369-9.097,9.569c1.811-1.138,5.77-2.855,4.718-5.456
		c-1.652,1.697-3.541,4.311-5.898,5.057c-1.531,0.485-3.337,0.304-4.614,1.46c-4.271,3.863,1.319,3.721,4.112,2.771
		c4.579-1.555,7.609-4.382,11.471-7.075c1.049-0.733,3.236-2.628,3.598-0.385c0.202,1.25-1.84,2.465-2.27,3.332
		c1.049-0.187,2.052-0.568,2.978-1.091c-0.289,3.377-2.646,5.309-2.338,8.822c0.233,2.681,0.545,5.871,0.984,8.579
		c0.631,3.889,5.038,8.99,8.902,4.979c1.408-1.462,1.74-4.678,1.74-6.65c0-1.533-0.514-3.495-0.235-4.967
		c0.432-2.284,2.155-4.679,2.896-6.964c0.833-2.571-2.517-2.992-3.471-5.656c-0.93-2.598,0.928-4.041,2.772-1.595
		c0.677,0.901,1.125,1.811,1.99,2.567c1.415-6.973,3.142-18.486-1.121-24.681c-2.088-3.033-4.745-4.394-7.401-1.71
		c-1.637,1.657-3.064,3.699-4.394,5.604c-0.565,0.809-1.653,2.037-1.946,2.978c-0.928,2.986,0.373,0.827,1.299,3.539
		c1.017,2.978-2.028,2.113-3.628,0.943c-3.026-2.214-5.165-4.7-9.112-5.94c-12.656-3.979-22.825,1.058-34.795,4.466
		c-1.898,0.54-3.775,1.005-5.721,1.327c2.69,0.825,5.581,1.048,8.375,0.766C151.822,38.678,159.99,39.023,161.83,38.792"/>
	<path fill-rule="evenodd" clip-rule="evenodd" fill="#CCCCCC" d="M221.896,18.152c0.071,2.123,3.437,4.445,5.72,5.132
		C225.635,21.648,223.891,19.772,221.896,18.152"/>
	<path fill-rule="evenodd" clip-rule="evenodd" fill="#CCCCCC" d="M221.454,18.094c-0.065-0.098-0.258-0.677-0.797-0.944
		C220.922,17.465,221.188,17.778,221.454,18.094"/>
	<path fill-rule="evenodd" clip-rule="evenodd" fill="#CCCCCC" d="M239.085,21.043c2.35-0.484,5.062-0.483,7.431,0.119
		c-5.685-1.835-12.009-0.812-17.219,1.975C232.609,22.705,235.899,21.248,239.085,21.043"/>
	<path fill-rule="evenodd" clip-rule="evenodd" fill="#CCCCCC" d="M220.126,17.209c0.071-0.636-0.921-0.956-1.903,0.119
		c-1.106,1.216-0.99,2.909-0.279,4.393c0.817,1.702,2.751,3.289,4.099,4.569c0.663,0.631,2.116,2.225,3.065,2.33
		c1.67,0.187,2.048-1.236,3.361-2.77C225.036,25.807,218.896,20.838,220.126,17.209"/>
	<path fill-rule="evenodd" clip-rule="evenodd" fill="#666666" d="M221.069,42.007C221.149,41.935,220.334,42.673,221.069,42.007"/>
	<path fill-rule="evenodd" clip-rule="evenodd" fill="#666666" d="M220.598,44.13c0.142,0.528,0.177,1.08,0.647,1.563
		C221.485,44.725,220.928,44.701,220.598,44.13"/>
	<path fill-rule="evenodd" clip-rule="evenodd" fill="#666666" d="M224.461,33.102c0.255-0.481,0.55-0.966,0.825-1.445
		c-1.463,0.702-2.421,3.578-3.008,5.308C222.901,35.624,223.635,34.326,224.461,33.102"/>
	<path fill-rule="evenodd" clip-rule="evenodd" fill="#FFFFFF" d="M145.435,44.867c-0.277-0.396-0.117-0.648-0.648-0.767
		C144.996,44.354,145.245,44.598,145.435,44.867"/>
	<path fill-rule="evenodd" clip-rule="evenodd" d="M222.485,53.858c1.089-2.24-0.626-2.938-2.123-2.121
		c-1.395,0.761-1.397,2.607-3.066,3.449c-2.186,1.098-4.771,0.478-6.518-1.063c-1.2-1.056-2.066-4.464-3.951-2.712
		c-3.065,2.853,4.647,7.102,6.9,7.313C217.475,59.078,220.879,57.311,222.485,53.858"/>
	<path fill-rule="evenodd" clip-rule="evenodd" fill="#666666" d="M227.115,55.156c3.38,3.303,4.57,10.662,6.133,15.038
		c-2.18-7.705-4.828-14.885-9.818-21.259C224.467,51.163,226.252,52.766,227.115,55.156"/>
	<path fill-rule="evenodd" clip-rule="evenodd" fill="#CCCCCC" d="M206.414,97.617C206.662,97.862,206.661,97.861,206.414,97.617"/>
	<path fill-rule="evenodd" clip-rule="evenodd" fill="#CCCCCC" d="M211.516,96.672c-3.401,5.9-3.114,14.273,0.354,20.405
		c1.854,3.274,4.793,5.823,8.301,7.193c1.646,0.645,2.949-5.602,4.438-7.489c-4.39-1.901-9.657-3.884-10.881-8.964
		C212.772,103.852,215.179,99.896,211.516,96.672"/>
	<path fill-rule="evenodd" clip-rule="evenodd" fill="#666666" d="M238.408,89.478c-0.271,0.182-1.471,4.988,1.033,5.425
		C238.604,93.443,238.803,91.255,238.408,89.478"/>
	<path fill-rule="evenodd" clip-rule="evenodd" fill="#FFFFFF" d="M194.915,56.838C195.389,56.629,195.469,56.594,194.915,56.838"/>
	<path fill-rule="evenodd" clip-rule="evenodd" fill="#FFFFFF" d="M195.858,63.325c-0.06,0.757-0.476,1.015,0.147,1.681
		C195.957,64.445,195.888,63.886,195.858,63.325"/>
	<path fill-rule="evenodd" clip-rule="evenodd" fill="#FFFFFF" d="M221.542,124.86C221.25,124.495,221.134,124.353,221.542,124.86"
		/>
	<path fill-rule="evenodd" clip-rule="evenodd" fill="#FFFFFF" d="M210.307,112.388c-0.211-0.496-0.452-0.983-0.677-1.475
		C209.811,112.398,210.125,112.359,210.307,112.388"/>
	<path fill-rule="evenodd" clip-rule="evenodd" fill="#FFFFFF" d="M249.997,16.059c1.445,1.775,3.895,3.749,5.101,6.134
		C258.383,19.489,252.36,16.631,249.997,16.059"/>
	<path fill-rule="evenodd" clip-rule="evenodd" fill="#CCCCCC" d="M257.604,22.604c-0.048-0.014-0.331,0.192-0.737-0.206
		c-0.884,3.912-0.603,3.938,1.829,7.136c-0.275-2.854,3.804-0.585,5.661-2.271c2.735-2.486-1.404-5.032-3.272-7.311
		C260.553,21.475,259.314,22.823,257.604,22.604"/>
	<path fill-rule="evenodd" clip-rule="evenodd" fill="#FFFFFF" d="M260.347,28.061c-3.841-1.467,1.518,6.745,2.159,7.881
		c0.948,1.676,4.52,7.766,0.554,4.976c0.182,1.371,2.538,5.995,0.294,5.631c-0.272,7.963-1.581,15.874-2.08,23.823
		c-0.429,6.847,0.151,13.883-0.236,20.816c-0.235,4.218,1.497,3.591,4.969,5.279c1.844,0.896,3.505,1.982,4.777,3.626
		c3.54,4.571-0.326,8.513,1.15,13.417c0.757-1.425,2.409-0.96,3.038-1.901c0.735-1.104,1.371-2.234,1.886-3.437
		c1.027-2.398,1.399-5.199,1.092-7.799c-0.531-4.487-2.65-8.259-5.128-12.006c-0.559-0.845-7.006-8.893-2.701-6.26
		c4.057,2.48,5.856-7.897,7.061-10.882c1.862-4.614,5.097-9.858,5.353-14.947c0.153-3.044-2.53-5.034-2.61-7.726
		c-0.031-1.064,1.635-2.03,1.283-2.817c-1.07-2.389-0.145-2.321,1.357-0.529c1.412,1.683,3.717,2.188,5.085,4.409
		c0.982-13.714,23.7-14.015,32.82-16.542c-6.677-0.133-13.226,0.291-19.836,1.233c-5.895,0.84-11.347,3.145-17.17,4.25
		c-3.1,0.587-7.475,0.564-9.909-1.829c-2.859-2.812-5.073-7.951-7.903-11.202C264.925,27.62,262.441,28.549,260.347,28.061
		 M279.395,53.978c0.026,9.583-15.292,8.784-15.067,0.059c0.079-3.063,1.331-1.703,2.27,0.176c0.926,1.854,2.644,2.919,4.659,3.126
		c1.903,0.193,3.596-0.39,4.925-1.711C277.035,54.78,277.86,51.521,279.395,53.978"/>
	<path fill-rule="evenodd" clip-rule="evenodd" d="M276.27,59.963c2.021-1.555,4.931-8.783,0.679-6.044
		c-1.527,0.983-1.036,2.965-3.657,3.317c-2.041,0.273-4.113,0.058-5.602-1.519c-0.726-0.769-1.733-4.723-3.273-3.481
		c-1.205,0.974,0.886,4.619,1.562,5.486C268.494,60.94,272.749,62.18,276.27,59.963"/>
	<path fill-rule="evenodd" clip-rule="evenodd" fill="#666666" d="M255.835,26.29c-0.442,1.873,3.852,5.255,5.071,7.048
		C259.62,30.695,257.962,28.328,255.835,26.29"/>
	<path fill-rule="evenodd" clip-rule="evenodd" fill="#666666" d="M263.061,40.917c-0.009,0.096-0.263,0.398,0.088,0.824
		C263.119,41.466,263.09,41.189,263.061,40.917"/>
	<path fill-rule="evenodd" clip-rule="evenodd" fill="#CCCCCC" d="M281.401,46.164c-2.7,2.084-0.563,4.014,0.384,6.31
		c1.442,3.5,0.318,6.521-1.022,9.853c-2.688,6.688-5.388,13.369-8.093,20.046c-0.882,2.179-4.547-3.347-4.213,0.678
		c0.108,1.299,4.062,4.855,4.922,6.154c1.533,2.32,3.256,5.076,4.042,7.762c0.751,2.57,1.006,6.032,0.265,8.61
		c-0.582,2.024-1.356,4.961-2.979,6.429c-0.57,0.517-3.156,0.095-2.682,1.828c0.384,1.406,1.384,2.232,1.945,3.42
		c0.591,1.252,0.229,3.606,2.198,4.039c1.32,0.293,2.833-1.31,3.818-2.049c2.074-1.553,2.733-6.762,2.89-9.124
		c0.233-3.521-0.456-7.088-1.592-10.408c-0.906-2.649-2.171-5.189-3.38-7.709c-0.715-1.494-0.804-3.091,0.961-1.641
		c1.486-5.334,2.912-10.679,4.665-15.935c0.682-2.042,1.363-3.976,1.916-6.046c0.616-2.313,0.026-4.891,0.645-7.091
		c0.374-1.335,1.841-0.096,1.37-2.019c-0.32-1.31-0.827-2.688-1.105-3.909c-0.122-0.539-0.009-0.938,0.339-1.342
		c0.331-0.381-1.485-1.985-1.888-2.445C283.407,49.968,282.296,48.094,281.401,46.164"/>
	<path fill-rule="evenodd" clip-rule="evenodd" fill="#CCCCCC" d="M320.472,33.073c-0.433,0.082-0.796,0.107-1.179,0.353
		c1.428-0.146,3.018,0.132,4.099,1.091C323.146,33.306,321.783,32.921,320.472,33.073"/>
	<path fill-rule="evenodd" clip-rule="evenodd" fill="#FFFFFF" d="M323.48,33.16c-0.513-0.02-1.022-0.04-1.533-0.059
		c0.352,0.307,1.075,0.676,1.504,0.884C323.455,33.883,323.407,33.222,323.48,33.16"/>
	<path fill-rule="evenodd" clip-rule="evenodd" fill="#CCCCCC" d="M284.85,46.548c-0.587-0.371-1.135-0.672-1.828-0.796
		c2.244,2.703,4.41,5.457,6.458,8.314C288.394,51.334,287.33,48.328,284.85,46.548"/>
	<path fill-rule="evenodd" clip-rule="evenodd" fill="#FFFFFF" d="M287.387,60.642c0.165-0.237,0.655,0.115,0.265-0.59
		C287.419,60.127,287.569,60.378,287.387,60.642"/>
	<path fill-rule="evenodd" clip-rule="evenodd" fill="#666666" d="M260.907,72.083c1.16-3.335,0.418-7.606,0.776-11.121
		c0.491-4.819,1.484-9.457,1.672-14.325c-1.645,7.747-2.052,15.558-2.4,23.453c-0.321,7.244-1.191,15.109-0.077,22.306
		C261.962,85.838,261.25,78.687,260.907,72.083"/>
	<path fill-rule="evenodd" clip-rule="evenodd" fill="#FFFFFF" d="M275.062,120.909c0.089,0.315,0.176,0.63,0.265,0.943
		c0.234-0.062,1.048-0.356,1.239-0.473C276.034,121.302,275.566,120.997,275.062,120.909"/>
	<path fill-rule="evenodd" clip-rule="evenodd" fill="#666666" d="M255.098,27.911c-2.004,0.528-3.004-2.69-4.541-3.802
		c-2.126-1.538-4.129-1.095-6.608-0.758c-4.26,0.584-8.537,1.035-12.81,1.508c-2.195,0.241-3.809,3.771-5.233,5.353
		c0.391-0.058,0.991,0.036,1.267,0c-1.533,3.248-4.252,6.128-5.307,9.731c2.436-0.783-0.182,1.896-0.383,3.008
		c0.002-0.011,0.345,2.868,0.471,3.153c0.71,1.603,2.495,2.885,3.687,4.395c1.887,2.392,3.254,5.055,4.452,7.842
		c3.752,8.738,5.445,18.373,7.962,27.274c0.42,1.488,1.197,3.806,1.477,5.886c0.087,0.658,0.045,3.098,0.734,3.49
		c1.263,0.717,6.24-1.065,7.806-1.25c2.426-0.285,4.982-0.233,7.411-0.016c3.736,0.332,4.556,1.691,4.421-2.449
		c-0.212-6.522,0.034-13,0.238-19.522c0.225-7.183,0.868-14.257,1.823-21.372c0.255-1.9,1.771-5.519,1.154-6.929
		c-0.536-1.229-1.793-2.792-0.177-3.157C262.142,35.285,258.817,31.252,255.098,27.911"/>
	<path fill-rule="evenodd" clip-rule="evenodd" fill="#FFFFFF" d="M262.735,39.059c0.338,0.812-0.122,1.405,1.033,1.296
		c-0.44-1.098-0.923-2.183-1.446-3.241C262.459,37.76,262.564,38.42,262.735,39.059"/>
	<path fill-rule="evenodd" clip-rule="evenodd" fill="#FFFFFF" d="M263.355,45.752c0.009-0.113,0.199-1.156-0.029-1.828
		C263.335,44.532,263.329,45.142,263.355,45.752"/>
	<path fill-rule="evenodd" clip-rule="evenodd" fill="#FFFFFF" d="M259.816,94.432C260.16,94.219,260.422,94.056,259.816,94.432"/>
	<path fill-rule="evenodd" clip-rule="evenodd" fill="#CCCCCC" d="M230.181,24.964c-0.759,0.326-1.156-0.12-1.089,1.032
		C229.407,25.607,229.771,25.255,230.181,24.964"/>
	<path fill-rule="evenodd" clip-rule="evenodd" fill="#FFFFFF" d="M237.76,86.411C237.371,86.837,237.571,86.618,237.76,86.411"/>
	<path fill-rule="evenodd" clip-rule="evenodd" fill="#FFFFFF" d="M240.266,95.317c0.251-0.13,0.552-0.205,0.826-0.268
		C240.43,94.806,240.451,95.222,240.266,95.317"/>
	<path fill-rule="evenodd" clip-rule="evenodd" fill="#CCCCCC" d="M300.508,41.652c-3.691,0.922-6.399,3.873-7.445,7.459
		c-0.519,1.783,0.148,5.626-0.87,6.96c-0.884,1.156-2.193,0.667-2.416-1.209c-1.857,1.547,1.159,4.443,2.815,5.233
		c3.794,1.81,10.336-0.194,13.933-1.605c9.644-3.787,15.106-13.383,16.749-23.178c-1.619,1.55-4.742,0.899-6.852,1.034
		c-2.835,0.181-5.001,0.719-7.51,1.739C306.162,39.203,303.076,40.078,300.508,41.652"/>
	<path fill-rule="evenodd" clip-rule="evenodd" fill="#FFFFFF" d="M311.331,56.013c2.537-1.903,4.729-4.047,6.604-6.605
		c-2.626,3.256-5.659,5.943-9.229,8.141C309.61,57.084,310.485,56.573,311.331,56.013"/>
	<path fill-rule="evenodd" clip-rule="evenodd" fill="#FFFFFF" d="M255.452,96.26c-7.304-0.348-26.544,0.814-26.804,11.263
		c-0.064,2.572,0.854,3.45-0.471,5.927c-0.4,0.751-2.268,2.739-1.947,3.302c0.622,1.089,0.227,1.7-0.117,2.743
		c-1.167,3.535-3.541,5.557-0.737,9.463c2.36,3.289,7.187,2.541,10.645,1.344c3.518-1.219,6.096-3.143,9.878-3.729
		c5.251-0.817,10.236-0.114,15.083,2.139c3.985,1.849,9.005,5.491,11.486-0.429c1.471-3.512,0.108-7.035-1.637-9.951
		c-1.136-1.898-2.291-4.462-2.212-6.722c0.088-2.541,2.083-4.822,1.518-7.389C268.862,98.422,260.295,96.556,255.452,96.26
		 M266.481,110.647c-1.519,2.717-3.591,0.247-5.043,0.974c-0.926,0.465-6.059,5.863-6.753,5.426
		c-2.772-1.748,4.986-8.501,5.958-9.141C263.354,106.117,268.211,106.081,266.481,110.647 M246.134,117.783
		c-2.746,1.502-3.142-3.807-5.395-4.452c-2.117-0.606-4.132,1.838-6.223-1.295c-2.51-3.766,2.686-3.801,4.777-2.685
		C242.558,111.092,246.212,113.701,246.134,117.783"/>
	<path fill-rule="evenodd" clip-rule="evenodd" d="M265.331,111.855c2.057-1.277,1.918-4.533-0.471-5.335
		c-3.356-1.125-8.623,4.759-9.865,7.46c-1.854,4.041,0.506,2.692,2.112,1.049c1.133-1.159,3.662-4.09,5.275-3.171
		C263.3,112.379,264.39,112.33,265.331,111.855"/>
	<path fill-rule="evenodd" clip-rule="evenodd" d="M243.598,116.781c0.359,0.902,2.58,2.175,2.522,0.605
		c-0.063-1.698-0.724-3.101-1.814-4.38c-1.613-1.893-7.091-6.344-9.48-4.098c-1.871,1.759,0.186,4.755,2.344,5.131
		c1.532,0.266,2.775-1.366,3.819-0.502C242.079,114.438,242.962,115.515,243.598,116.781"/>
	<path fill-rule="evenodd" clip-rule="evenodd" fill="#666666" d="M254.096,96.201c0.452,0.02,0.904,0.039,1.355,0.059
		c-0.866-0.055-1.727-0.092-2.594-0.117C253.27,96.162,253.683,96.182,254.096,96.201"/>
	<path fill-rule="evenodd" clip-rule="evenodd" fill="#CCCCCC" d="M260.671,131.112c-2.185-1.022-22.131-4.678-17.869,2.416
		c0.858,1.431,1.46,0.782,2.772,0.855c2.332,0.131,4.736-0.024,7.233,0.372C255.936,135.255,259.598,134.791,260.671,131.112"/>
	<path fill-rule="evenodd" clip-rule="evenodd" fill="#FFFFFF" d="M254.361,135.829c0.563-0.125,1.129-0.361,1.681-0.531
		c-4.112-0.704-7.643-0.707-11.589-0.707c-2.824,0-1.732-4.102-0.5-5.365c-1.452-0.849-2.935-0.298-4.099,0.823
		c4.116-3.751,2.396,1.365,2.358,3.273c-0.027,1.423-1.041,1.997,0.531,2.359c1.262,0.29,2.542,0.509,3.834,0.619
		C249.206,136.527,251.771,136.29,254.361,135.829"/>
	<path fill-rule="evenodd" clip-rule="evenodd" fill="#FFFFFF" d="M260.613,138.335C260.49,138.537,260.251,138.927,260.613,138.335
		"/>
	<path fill-rule="evenodd" clip-rule="evenodd" fill="#CCCCCC" d="M244.424,140.191c-7.236-5.102,0.306,16.603-4.218,15.186
		c-0.077,2.962-1.341,0.614-2.063,1.298c0.443-0.419-1.07,1.329-1.062,1.327c-1.182,0.456,0.773,1.333-1.651,0.385
		c-1.44-0.565-1.951-2.422-3.391-3.01c0.76,3.21-0.21,3.866-2.389,1.415c1.105,3.183,2.066,4.759-2.064,2.537
		c-2.349-1.264-5.13-3.569-6.133-6.134c-0.558,1.342-0.967,6.739-2.506,6.811c-1.819,0.084-3.221-7.745-3.54-9.14
		c-0.441,0.465-1.327,2.483-1.768,2.594c-2.057,0.521-1.257-1.761-1.77-2.711c-2.81-5.206-6.945-8.968-9.023-14.817
		c-1.307-3.681-0.929-7.727-2.27-11.277c-0.472-1.249-1.181-2.33-2.241-3.17c-0.896-0.709-2.878,0.663-2.271,1.712
		c1.816,3.127,1.498,7.613,2.77,11.043c2.143,5.772,5.426,10.796,8.747,15.949c6.233,9.678,14.583,17.914,20.541,27.729
		c0.426,0.701,4.939,10.717,1.057,8.775c0.309,3.274-0.708,7.698,3.538,8.55c3.549,0.71,4.559-7.887,5.218-10.084
		c0.95-3.165,4.061-5.449,5.739-8.261c1.751-2.932,3.838-5.605,5.793-8.398c2.192-3.133,4.874-6.713,5.571-10.528
		c-4.009,0.32-0.38-4.692,0.354-6.014c2.131-3.837,4.32-9.253,5.014-13.477C255.351,141.437,249.994,142.014,244.424,140.191
		 M246.194,144.674c2.362-2.115,1.179,6.246,1.078,7.358c-0.195,2.189-0.378,4.353-1.197,6.087
		c-0.073,0.156-0.692,0.039-0.736,0.117c-2.11,3.742-3.169,9.085-4.55,13.438c-0.52,1.636-3.182,13.935-4.224,14.074
		c-2.648,0.354,3.405-18.635,4.512-21.732c1.313-3.673,3.359-7.162,4.084-10.702C245.742,150.475,245.267,147.335,246.194,144.674
		 M235.018,158.091c-0.614,0.244-0.731,0.996-1.238,0C234.115,158.116,234.701,158.216,235.018,158.091"/>
	<path fill-rule="evenodd" clip-rule="evenodd" d="M246.34,144.262c-0.782,2.109-0.696,4.39-0.913,6.693
		c-0.436,4.615-2.628,7.322-4.011,11.795c-1.016,3.289-8.188,21.706-5.647,22.88c1.657,0.767,3.919-10.467,4.495-12.299
		c1.493-4.753,2.467-10.545,4.749-14.916c0.703-1.349,1.69-0.434,2.036-3.893C247.229,152.714,249.083,144.007,246.34,144.262"/>
	<path fill-rule="evenodd" clip-rule="evenodd" d="M234.663,158.503c0.091,0.055,0.161-0.566-0.884-0.412
		C233.953,158.794,234.342,158.346,234.663,158.503"/>
	<path fill-rule="evenodd" clip-rule="evenodd" fill="#FFFFFF" d="M242.773,237.553c0.517-1.535-1.889-4.885-2.713-6.338
		c-1.897-3.351-3.961-6.346-5.264-10.025c-1.047-2.961-3.069-6.777-2.83-10.114c0.076-1.054,0.066-2.559,0.28-3.538
		c0.575-2.634-0.082-1.149,1.179-1.947c0.328-0.206,2.044-0.136,2.904-0.662c1.158-0.712,1.369-3.266,1.784-4.596
		c1.656-5.313,2.749-10.625,3.362-16.146c-0.577,1.002-1.385,1.912-1.828,0.678c-0.599-1.661,2.856-6.126,3.743-7.489
		c-3.66,4.715-5.626,8.375-7.399,14.05c-0.722,2.313-1.419,4.516-4.188,3.582c-4.313-1.451-0.66-6.349-2.816-8.506
		c-2.368-2.367-3.42-7.986-5.32-11.027c-6.069-9.705-14.784-17.752-21.18-27.277c-2.971-4.426-5.442-9.495-6.202-14.828
		c-0.468-3.287-3.715-9.54-1.43-11.69c0.079-0.076,0.828,0.857,0.943,1.062c2.581-5.008,5.103,3.366,5.367,5.395
		c1.045,8.007,4.514,17.231,10.823,22.616c0.851-8.669,5.27-14.551,12.265-19.136c-1.161-1.192-2.15-5.102-3.272-5.102
		c-2.328,0-4.397-1.509-6.133-2.918c-5.177-4.206-8.303-11.115-7.756-17.811c-7.23,3.142-11.869-14.342-15.658-16.658
		c-0.658,1.152-3.812,3.386-3.799,4.504c0.047,4.084,0.626,8.043,0.977,12.098c0.341,3.954,2.183,10.135-2.073,5.128
		c0.017,0.465-0.026,0.402-0.146,0.679c-0.382-1.999-1.923-3.73-2.507-5.778c-0.925-3.244-1.071-6.966-1.091-10.319
		c-1.256,0.531-2.239,0.275-2.3-1.123c-4.068,0.209-2.562,12.826-2.409,15.642c0.095,1.77,1.466,6.339,0.847,7.976
		c-0.803,2.127-1.125,0.998-1.858-0.853c-2.041-5.173-1.287-12.847-0.857-18.284c0.201-2.553,0.412-4.708-0.498-1.117
		c-0.395,1.557-0.921,4.675-0.665,6.22c0.744,4.475-7.915,7.077-11.25,7.077c-2.792,0-3.934,2.328-6.531,2.328
		c-2.919,0-3.105-5.362-3.259-7.252c-0.44-5.418-0.458-10.611,0.482-15.987c0.205-1.165,0.918-3.597-0.438-3.782
		c-1.477-0.201-0.484-1.315,0.339-1.989c-0.998-0.567-2.051-0.555-3.273-0.562c1.909-2.048,2.379-3.983,5.132-5.485
		c-6.693,0.274-13.499,0.267-20.17,0.856c-1.18,0.104-9.475,3.015-7.962-0.116c-3.743-0.312-4.168,2.427-8.05,2.858
		c0.696,1.713-1.903,2.368-3.273,2.858c-2.294,0.823-3.666,1.359-5.572,2.861c-5.369,4.23-10.253,9.146-15.688,13.343
		c-5.172,3.993-10.662,7.592-16.221,11.023c-3.55,2.192-7.33,3.732-11.093,5.505c-3.327,1.567-10.262,3.478-12.082,6.751
		c3.181-2.716,2.44,7.471,1.945,8.873c-0.942,2.674-1.039,2.926-0.176,5.574c0.351,1.076,0.862,1.941,1.061,3.095
		c0.274,1.594-0.044,3.325-0.088,4.925c-0.054,1.995-0.325,2.122-0.797,3.214c-0.923,2.139-4.135,2.894-6.032,3.967
		c-3.702,2.1-6.995,4.938-10.746,6.913c-4.304,2.269-8.402,2.22-9.997-3.125c-4.031,8.333-5.792,17.432-6.958,26.566
		c5.804-1.183,5.398,5.315,6.314,8.981c1.563,6.245,6.584,17.915,13.56,19.663c9.629,2.411,20.913,2.127,30.785,2.077
		c5.276-0.024,10.551-0.189,15.813-0.596c4.276-0.329,4.272-4.788,4.356-8.69c-2.907,0.033-5.832-0.241-8.7-0.323
		c-2.454-0.071-3.532,0.667-2.712-2.035c0.989-3.258,5.624-3.545,7.372-6.045c2.274-3.251,2.425-6.399,6.281-8.581
		c3.938-2.227,9.487-1.086,13.742-0.234c0.379-4.168,3.783-16.784,0.059-19.402c-3.016-2.122-8.143,2.607-12.385-0.885
		c0.978-1.047-2.311-4.108-2.683-5.882c-0.358-1.705,1.482-2.585,1.002-3.936c-0.705-1.987-6.663-2.803-8.405-3.48
		c-2.046-0.795-4.542-1.763-6.192-3.272c-3.618-3.311-3.656-8.375-3.067-12.798c0.239-1.783,2.014-6.538-0.058-6.752
		c-1.927-0.197-1.003-1.551-0.06-2.446c-2.099,0.015-3.084-1.279-4.688-1.682c3.452-3.021,5.516-5.861,9.981-7.856
		c4.114-1.837,8.186-2.647,12.276-4.044c3.488-1.19,6.975-2.382,10.463-3.571c2.286-0.78,4.364-2.414,6.823-2.719
		c2.352-0.293,4.221,0.673,5.867,2.595c2.813,3.283,2.061,4.627,6.79,5.896c3.803,1.02,7.579,0.168,10.489,3.257
		c2.325,2.467,2.296,5.94,2.744,9.097c0.693,4.889,4.518,7.501,9.406,8.521c2.993,0.626,11.764-0.811,11.353,3.951
		c1.065-1.332,2.787-1.158,3.745-2.387c1.136-1.462,1.389-3.939,2.625-5.576c2.265-2.994,6.01-5.99,10.055-5.307
		c8.419,1.429,7.13,12.534,7.185,18.584c0.03,3.328,2.791,7.14,1.78,10.048c-1.14,3.278-5.325,0.2-7.55-1.682
		c-3.516-2.974-5.961-5.327-10.704-6.426c-2.977-0.69-6.207-0.618-8.256-3.243c-1.501,2.303-13.038,10.512-12.975,3.86
		c-7.258,1.859-9.512,9.904-15.215,13.858c-1.952,1.353-4.407,2.418-6.827,2.418c-0.731,0-1.356-0.13-2.005-0.473
		c-0.562-0.297-2.277,2.639-2.714,3.239c-0.978,1.347,0.693,5.242,1.254,6.726c1.463,3.87,6.005,4.934,7.269,8.715
		c0.504,1.512,0.181,3.16,1.223,4.467c0.828,1.036,2.768,0.841,3.361,1.623c1.772,2.332-2.471,6.623-3.758,8.814
		c-0.888,1.509-1.424,3.95-2.699,4.747c-1.054,0.658-3.104,0.348-4.306,0.649c-2.245,0.563-1.976-0.857-2.859,2.267
		c-0.57,2.018-1.192,4.023-1.74,6.047c-0.911,3.37-0.776,5.536-0.635,8.935c0.254,6.081,2.516,11.527,6.827,15.863
		c1.437-1.778,3.544-2.937,5.764-3.405c1.947-0.411,3.983-2.629,5.942-3.375c-1.882,4.666-9.901,10.087-8.7,15.124
		c0.334,1.403-0.203,1.675,1.474,2.33c3.043,1.19,6.145,2.147,9.289,3.03c5.806,1.631,11.862,2.328,17.854,2.835
		c12.883,1.089,25.458,1.01,38.211-1.334c3.034-0.561,5.824-2.574,8.984-1.788c3.337,0.828,4.255,3.187,7.564,0.973
		c3.633-2.43,6.156-6.654,8.919-10.07c2.359-2.915,1.929-3.789,1.18-7.648c-0.603-3.106-1.297-6.106-2.624-8.996
		c-1.619-3.522-4.155-8.537-8.317-8.697c-2.021-0.08-4.953,0.721-7.43,0.532c-5.301-0.407-10.454-1.642-15.673-2.593
		c-2.969-0.545-5.375-0.186-7.967-1.053c-7.064-2.359-17.653,1.53-23.864,5.059c-1.726,0.979-6.253,3.657-3.186-0.295
		c2.405-3.095,6.686-2.998,5.604-7.783c-0.569-2.515-2.168-2.09-4.851-2.33c-1.435-0.128-5.155,0.554-2.61-1.09
		c2.924-1.888,8.527-1.303,11.736-0.68c-0.768-3.762,3.237-5.686,4.556-8.683c1.758-3.997,4.917-5.124,8.994-5.246
		c2.604-0.081,6.034-11.351,8.049-13.359c3.358-3.348,5.504-8.771,8.094-13.032c1.203-1.979,2.241-2.922,1.68-5.175
		c-0.24-0.967-0.568-2.239-0.471-3.26c0.512-5.365,5.772,0.46,6.752,2.302c4.703,8.845,10.821,17.611,13.957,27.192
		c3.054,9.325,4.304,18.716-1.13,27.192c2.505,1.106,4.377,3.347,5.957,5.515c3.827-2.439,6.306-5.598,8.994-9.198
		c-1.164,3.669-0.729,8.861-2.849,12.042c-2.395,3.594-0.927,8.504,1.007,12.371c1.088,2.178,2.769,4.278,5.174,4.657
		C233.271,241.336,240.253,239.639,242.773,237.553 M173.006,236.137c6.265-1.207,6.738,6.946,2.505,9.673
		C166.961,251.314,162.525,238.144,173.006,236.137 M230.27,223.814C230.649,224.102,230.492,223.982,230.27,223.814"/>
	<path fill-rule="evenodd" clip-rule="evenodd" fill="#666666" d="M171.236,237.435c0.836-0.258,1.525-0.636,2.182-1.239
		c-7.582-0.077-9.538,11.703-1.682,10.809c3.644-0.415,10.549-6.117,5.28-9.776c1.998,4.428-0.467,9.497-5.809,9.26
		C164.733,246.201,167.608,236.578,171.236,237.435"/>
	<path fill-rule="evenodd" clip-rule="evenodd" d="M172.444,236.936c-0.376,0.136-0.725,0.428-1.208,0.499
		c-3.954-0.933-6.727,11.112,1.917,8.669c1.942-0.55,5.487-2.635,4.805-5.071C177.369,238.921,175.688,233.271,172.444,236.936
		 M170.263,238.174c1.609-0.252,3.194-2.011,4.836-1.533c3.157,0.913,2.929,5.781,0.914,7.487c-1.278,1.085-5.54,2.917-6.855,1.4
		C167.131,243.196,168.121,240.204,170.263,238.174"/>
	<path fill-rule="evenodd" clip-rule="evenodd" fill="#666666" d="M170.764,238.113c-2.092,0.813-3.5,4.459-2.389,6.399
		c1.497,2.612,4.615,1.305,6.782,0.147c2.608-1.394,3.866-5.938,0.649-7.814C174.04,235.817,172.37,237.642,170.764,238.113"/>
	<path fill-rule="evenodd" clip-rule="evenodd" d="M230.594,223.814C230.143,224.031,230.213,223.997,230.594,223.814"/>
	<path fill-rule="evenodd" clip-rule="evenodd" fill="#CCCCCC" d="M242.861,236.402c0.712-0.908-1.842-3.884-2.801-5.188
		C240.746,233.06,241.773,234.767,242.861,236.402"/>
	<path fill-rule="evenodd" clip-rule="evenodd" fill="#666666" d="M152.57,81.165c0.381,0.922,1.354-0.724,2.476-1.284
		c1.136-0.567,2.298-1.027,3.392-1.667C155.975,77.767,154.144,79.505,152.57,81.165"/>
	<path fill-rule="evenodd" clip-rule="evenodd" fill="#666666" d="M154.34,83.521c-0.046,0.339-1.238,0.125,0.059,0.769
		C155.089,83.803,154.29,83.882,154.34,83.521"/>
	<path fill-rule="evenodd" clip-rule="evenodd" fill="#666666" d="M155.784,86.471c-0.325-0.03-0.647-0.06-0.972-0.088
		c0.06,5.209-1.471,10.257-1.143,15.536c0.217,3.498-0.409,8.26,2.588,10.617c-1.62-2.997-1.17-6.229-1.186-9.502
		C155.045,97.571,154.553,91.832,155.784,86.471"/>
	<path fill-rule="evenodd" clip-rule="evenodd" fill="#666666" d="M108.457,112.064c2.125-0.76,4.259-1.469,6.399-2.184
		C112.851,109.439,110.183,111.021,108.457,112.064"/>
	<path fill-rule="evenodd" clip-rule="evenodd" fill="#666666" d="M112.468,111.385c-12.152,6.01-26.349,6.551-36.624,16.012
		c1.936,0.153,4.008,0.089,5.839,0.678c-0.194,0.585-1.49,1.674-1.563,2.094c-0.321,1.838,0.125-0.165,0.766,2.064
		c0.572,1.985-0.507,3.618-0.825,5.514c-0.478,2.832-0.107,5.815,0.517,8.596c0.794,3.539,2.674,5.983,6.03,7.386
		c3.75,1.568,8.286,3.126,12.031,4.303c-0.673,1.386-2.243,3.463-1.519,5.059c1.294,2.852,3.476,5.735,6.796,5.999
		c2.078,0.166,3.74-1.024,5.721-1.296c0.526-0.072,1.197-0.248,1.857-0.325c1.287-0.152,0.345,0.787,0.561,0.913
		c-0.105-0.061-0.105,1.013,0.117,1.211c0.3,0.263,1.411,0.265,1.843,0.471c1.161,0.55,1.931,1.405,3.2,1.711
		c-0.829,1.055,1.515,9.021,1.622,11.231c0.1,2.077,0.07,4.03-0.369,6.075c-0.396,1.852-0.666,0.924-2.167,1.239
		c-4.718,0.993-8.112-0.137-12.09-1.209c-4.016-1.083-7.123-0.49-9.731,3.271c-1.868,2.695-2.347,5.812-5.308,7.74
		c-1.113,0.727-8.144,4.65-2.976,4.3c2.995-0.205,10.549-2.456,9.833,2.791c-0.38,2.773-3.331,8.829-0.311,11.146
		c1.712,1.314,5.571,0.425,7.756,0.736c2.722,0.391,5.246,0.38,7.961,0.768c-1.069,1.017-1.947,0.799-3.302,0.796
		c-3.518-0.01-7.532-0.767-11.264-0.737c3.449,0.83,6.977,0.191,10.409,1.224c0.887,0.268,3.488,1.688,3.757,0.563
		c0.581-2.431,1.253-4.827,2.074-7.187c1.766-5.076,3.512-10.161,5.273-15.24c1.069-3.081,0.751-6.729,2.165-9.656
		c1.428-2.96-0.433-8.232-0.993-11.294c-0.503-2.738-1.868-6.212-3.002-9.096c-0.337-0.856-2.473-5.618-1.49-6.162
		c1.155-0.64,3.511,5.126,3.922,6.104c1.515-6.86,7.379-1.266,12.207-5.278c1.326-1.102,2.071-2.688,2.92-3.894
		c2.607-3.705,6.552-7.045,10.505-9.506c3.603-2.242,2.587,2.24,6.067,1.752c3.402-0.474,4.488-4.17,6.517-6.279
		c1.224-1.274,2.814-1.545,2.801-3.009c-0.026-3.029-5.479-2.151-7.676-2.278c-3.919-0.223-8.029-1.943-10.944-4.576
		c-3.464-3.129-2.313-7.735-3.51-11.823c-1.216-4.158-5.488-4.384-9.185-4.615c-4.356-0.272-7.832-2.411-9.51-6.532
		C118.065,110.412,114.799,109.902,112.468,111.385"/>
	<path fill-rule="evenodd" clip-rule="evenodd" fill="#666666" d="M80.002,122.62c-1.479,0.887-2.824,2.202-3.686,3.685
		c4.364-4.279,9.914-5.59,14.684-8.786C87.097,118.849,83.543,120.511,80.002,122.62"/>
	<path fill-rule="evenodd" clip-rule="evenodd" fill="#666666" d="M81.063,128.399c-1.089-0.359-3.65-0.308-5.218-0.385
		c0.763,1.477,2.767,1.239,3.45,1.948C79.992,129.558,80.62,129.043,81.063,128.399"/>
	<path fill-rule="evenodd" clip-rule="evenodd" fill="#FFFFFF" d="M79.914,131.465c-0.313-0.221-0.542-0.428-0.59-0.794
		c-0.216,0.126-0.384,0.304-0.501,0.529C79.119,131.362,79.686,131.304,79.914,131.465"/>
	<path fill-rule="evenodd" clip-rule="evenodd" fill="#666666" d="M81.564,150.276c-1.732-3.592-2.319-7.572-2.064-11.529
		c-0.641,2.275-0.583,4.727-0.029,7.021c0.222,0.918,0.516,1.845,0.928,2.696C80.69,149.062,81.796,151.443,81.564,150.276"/>
	<path fill-rule="evenodd" clip-rule="evenodd" fill="#666666" d="M123.437,117.253c1.877,1.063,4.195,1.386,6.31,1.68
		C127.644,118.368,125.542,117.808,123.437,117.253"/>
	<path fill-rule="evenodd" clip-rule="evenodd" fill="#666666" d="M139.684,128.222c-0.339,1.811-0.07,3.607,0.827,5.218
		C140.326,131.687,140.068,129.942,139.684,128.222"/>
	<path fill-rule="evenodd" clip-rule="evenodd" fill="#666666" d="M157.142,140.104c-2.002-1.013-4.278-0.684-6.546-1.003
		c-2.829-0.396-5.297-1.882-7.903-3.066C146.584,139.362,152.208,140.042,157.142,140.104"/>
	<path fill-rule="evenodd" clip-rule="evenodd" fill="#666666" d="M154.872,151.484c2.363-1.821,4.992-3.244,4.924-6.396
		c-3.256,2.215-4.653,6.529-8.405,7.961C152.68,152.882,153.853,152.283,154.872,151.484"/>
	<path fill-rule="evenodd" clip-rule="evenodd" fill="#CCCCCC" d="M188.87,72.908c0.211,0.221,0.377,0.412,0.472,0.706
		c0.58,0.108,0.5-0.428,0.471,0.649c1.523,0.176,2.192,2.451,1.946,4.363c-0.191,1.482-1.704,2.758-1.534,4.261
		c0.212,1.86,0.733,2.382,1.327,3.967c0.371,0.988,0.124,1.945,0.414,2.771c0.528,1.507,2.045,3.933,2.979,5.514
		c1.918,3.251,4.857,7.525,8.05,9.61c0.951,0.622,4.035,2.406,4.128,0.401c0.126-2.716-1.533-2.93-3.598-4.557
		c-3.272-2.575-5.736-5.797-7.387-9.613c-2.095-4.85,0.544-1.374,1.755,0.768c1.614,2.854,3.788,5.263,6.34,7.311
		c-4.686-5.476-7.603-13-8.872-20.044c-0.335-1.864,0.033-10.223-0.977-11.269C192.95,66.266,189.643,71.427,188.87,72.908"/>
	<path fill-rule="evenodd" clip-rule="evenodd" fill="#666666" d="M176.131,95.317c-1.854,0.921-1.481,5.922-1.18,7.959
		C175.504,100.957,175.313,96.658,176.131,95.317"/>
	<path fill-rule="evenodd" clip-rule="evenodd" fill="#666666" d="M191.022,80.486c0.926-1.755,1.558-4.234-0.414-5.515
		c-0.062,1.216,1.01,1.027,1.032,1.68c0.052,1.502-0.923,3.838-1.356,5.457C190.53,81.568,190.795,81.034,191.022,80.486"/>
	<path fill-rule="evenodd" clip-rule="evenodd" fill="#FFFFFF" d="M190.433,85.291c-0.065-0.976-0.154-1.949-0.266-2.92
		C189.458,83.53,189.405,84.554,190.433,85.291"/>
	<path fill-rule="evenodd" clip-rule="evenodd" fill="#666666" d="M190.433,85.291c-0.304-0.221-0.56-0.479-0.885-0.679
		c-0.695,1.534,0.177,2.802,1.445,3.671c1.276,0.877-5.309,4.777-5.544,6.089C188.326,93.237,194.326,88.465,190.433,85.291"/>
	<path fill-rule="evenodd" clip-rule="evenodd" fill="#CCCCCC" d="M183.356,95.198c-2.47,2.45,0.505,12.371,2.83,15.214
		C184.053,105.425,183.289,100.907,183.356,95.198"/>
	<path fill-rule="evenodd" clip-rule="evenodd" fill="#666666" d="M180.495,94.283c0.323-0.061-0.74,0.116-0.973,0.268
		C179.599,94.533,180.463,94.289,180.495,94.283"/>
	<path fill-rule="evenodd" clip-rule="evenodd" fill="#CCCCCC" d="M187.631,93.224c-4.185,1.416-1.938,8.661-1.327,12.118
		c0.257,1.449-0.322,7.636,2.093,7.843c1.723,0.146,0.453-4.392,0.355-5.763C188.415,102.665,187.629,98.012,187.631,93.224"/>
	<path fill-rule="evenodd" clip-rule="evenodd" d="M193.912,122.148c1.202,9.632,4.868,19.018,10.065,27.393
		c6.223,10.028,15.436,18.09,21.131,28.377c0.759,1.37,2.775,8.732,4.483,8.979c2.187,0.316,1.026-3.577,0.575-4.865
		c-3.653-10.412-13.74-18.971-19.989-27.93c-4.401-6.31-9.049-12.994-11.518-20.337
		C198.169,132.306,196.564,120.106,193.912,122.148"/>
	<path fill-rule="evenodd" clip-rule="evenodd" fill="#666666" d="M172.09,108.378c0.456-0.378,0.904-0.703,1.299-1.149
		c-1.085,0.84-2.225,1.619-3.45,2.241C170.65,109.089,171.375,108.738,172.09,108.378"/>
	<path fill-rule="evenodd" clip-rule="evenodd" fill="#666666" d="M161.358,110.826c-1.51-0.081-2.604,0.975-3.273,2.269
		C159.42,112.786,160.532,111.903,161.358,110.826"/>
	<path fill-rule="evenodd" clip-rule="evenodd" fill="#666666" d="M177.9,129.989c1.012,1.244,2.524,1.574,3.568,2.567
		c1.624,1.544,2.232,3.898,2.683,6.074C184.02,134.546,181.908,131.201,177.9,129.989"/>
	<path fill-rule="evenodd" clip-rule="evenodd" fill="#666666" d="M163.275,142.375c0.451-0.306,0.804-0.353,1.061-0.826
		C160.277,142.035,160.716,144.953,163.275,142.375"/>
	<path fill-rule="evenodd" clip-rule="evenodd" fill="#FFFFFF" d="M159.795,141.607c-0.256-0.269-0.043-0.591-0.679-0.471
		C159.343,141.294,159.568,141.45,159.795,141.607"/>
	<path fill-rule="evenodd" clip-rule="evenodd" fill="#666666" d="M164.63,140.607c0.939-2.451,2.216-4.957,3.922-6.96
		C166.533,135.463,165.24,137.986,164.63,140.607"/>
	<path fill-rule="evenodd" clip-rule="evenodd" fill="#CCCCCC" d="M197.509,136.714c-0.479-1.273-0.936-2.553-1.296-3.864
		c1.013,7.399,4.861,14.092,9.671,19.668C202.571,147.567,199.669,142.271,197.509,136.714"/>
	<path fill-rule="evenodd" clip-rule="evenodd" fill="#FFFFFF" d="M215.407,150.866
		C215.407,150.788,215.407,150.788,215.407,150.866"/>
	<path fill-rule="evenodd" clip-rule="evenodd" fill="#FFFFFF" d="M241.416,138.836c-0.039,0.335-0.079,0.669-0.118,1.002
		c0.238-0.085,0.798-0.384,1.003-0.531C242.105,139.215,241.529,139.028,241.416,138.836"/>
	<path fill-rule="evenodd" clip-rule="evenodd" fill="#666666" d="M56.353,125.066c-0.013-0.396-0.034-0.69-0.207-0.883
		c-8.441,6.087-13.908,15.28-19.304,24.018c-1.746,2.83-5.952,7.131-4.198,10.626c1.507,3.001,4.19,2.826,6.842,1.65
		c4.307-1.908,8.163-5.187,12.176-7.675c2.315-1.436,5.478-2.609,6.283-5.061c0.632-1.926,0.093-5.063-0.354-6.988
		c-0.946-4.073-2.968-4.483-1.076-8.794C57.199,130.402,59.376,125.076,56.353,125.066"/>
	<path fill-rule="evenodd" clip-rule="evenodd" fill="#666666" d="M58.742,131.2c0.334-1.355,0.513-2.775,0.265-4.158
		c0.083,4.766-4.505,6.897-1.091,11.589C56.127,136.035,57.885,133.875,58.742,131.2"/>
	<path fill-rule="evenodd" clip-rule="evenodd" fill="#666666" d="M58.004,150.069c-0.341-0.494-8.387,5.139-9.878,6.134
		C50.807,154.424,56.476,152.885,58.004,150.069"/>
	<path fill-rule="evenodd" clip-rule="evenodd" fill="#CCCCCC" d="M24.359,184.186c-0.628,6.159-0.595,12.315,0.549,18.416
		c1.254,6.696,4.767,12.428,7.146,18.675c0.505-0.906,1.259-1.641,2.182-2.121c-0.768,0.109-1.569,0.079-2.329,0.234
		c2.193-0.434,6.163-3.118,7.489-0.706c0.583,1.057-1.285,2.555,0.23,4.518c1.383,1.796,2.601,4.08,4.958,4.384
		c4.744,0.61,8.884,1.823,13.331,3.599c2.352,0.941,5.18,1.512,7.313,2.891c0.389,0.25,2.877,2.201,2.904,2.283
		c2.063,6.224,18.022,2.391,23.277,1.957c4.374-0.357,12.337,0.283,16.221-1.733c1.673-0.87,1.44-0.117,1.63-2.404
		c0.099-1.184,0.197-2.368,0.392-3.54c0.467-2.799,0.498-5.626,1.251-8.386c-4.16-0.717-8.285-1.356-12.459-2.034
		c-3.048-0.494-7.53-2.295-5.027-6.104c-9.158,0.705-18.359,1.047-27.542,0.649c-4.787-0.209-9.548-0.572-14.316-1.03
		c-3.019-0.29-7.048-0.001-9.495-2.053c-6.014-5.041-10.576-12.657-11.796-20.446C29.723,187.736,29.216,183.197,24.359,184.186"/>
	<path fill-rule="evenodd" clip-rule="evenodd" fill="#CCCCCC" d="M38.808,218.742c-0.267,0.132-0.825-0.231-0.457,0.235
		C38.708,219.433,38.506,218.893,38.808,218.742"/>
	<path fill-rule="evenodd" clip-rule="evenodd" fill="#666666" d="M38.602,220.658c-0.054-0.164,0.188-0.664,0.176-0.884
		C37.966,221.205,37.967,220.839,38.602,220.658"/>
	<path fill-rule="evenodd" clip-rule="evenodd" fill="#666666" d="M37.51,220.274c0.354-0.331,0.623-0.746,1.002-1.092
		c-1.233-0.771-4.56-0.425-5.632,0.975c-1.448,1.891-0.003,2.399,1.018,4.173c2.138,3.712,3.923,8.616,7.269,11.543
		c6.273,5.486,20.417,3.549,28.397,3.597c-3.756-6.297-11.175-6.608-17.251-9.643c-2.922-1.457-6.209-0.493-8.876-1.531
		C41.551,227.56,37.558,222.531,37.51,220.274"/>
	<path fill-rule="evenodd" clip-rule="evenodd" fill="#666666" d="M43.23,227.411c1.108,0.773,2.245,0.446,3.657,0.56
		C45.677,227.731,44.456,227.545,43.23,227.411"/>
	<path fill-rule="evenodd" clip-rule="evenodd" fill="#CCCCCC" d="M65.435,234.9c-0.21-0.131-0.848-0.548-1.121-0.68
		C64.688,234.448,65.062,234.674,65.435,234.9"/>
	<path fill-rule="evenodd" clip-rule="evenodd" fill="#666666" d="M66.909,235.902C67.078,236.547,66.614,234.773,66.909,235.902"/>
	<path fill-rule="evenodd" clip-rule="evenodd" fill="#666666" d="M68.354,236.669c0.168,0.365,1.265,1.774,1.887,2.535
		C70.082,238.072,69.372,237.2,68.354,236.669"/>
	<path fill-rule="evenodd" clip-rule="evenodd" fill="#666666" d="M55.97,230.802c1.324,0.678,2.738,1.029,4.188,1.356
		c-1.928-0.904-3.92-1.683-5.957-2.299C54.804,230.149,55.371,230.505,55.97,230.802"/>
	<path fill-rule="evenodd" clip-rule="evenodd" fill="#666666" d="M237.878,156.262
		C237.175,156.062,237.324,156.105,237.878,156.262"/>
	<path fill-rule="evenodd" clip-rule="evenodd" fill="#666666" d="M232.039,154.345
		C231.961,154.333,231.994,154.338,232.039,154.345"/>
	<path fill-rule="evenodd" clip-rule="evenodd" fill="#FFFFFF" d="M232.039,154.345c0.267,0.678-0.228,1.152,0.854,1.298
		C232.573,155.23,232.309,154.793,232.039,154.345"/>
	<path fill-rule="evenodd" clip-rule="evenodd" fill="#666666" d="M221.454,153.195c0.393,1.005,1.036,1.896,1.857,2.596
		C222.703,155.081,221.563,153.29,221.454,153.195"/>
	<path fill-rule="evenodd" clip-rule="evenodd" fill="#CCCCCC" d="M215.143,198.869c-1.002-8.05-3.519-15.712-7.814-22.616
		c-2.621-4.212-5.488-8.1-7.313-12.767c-0.794-2.028-3.071-7.114-5.559-6.929c-2.918,0.216-2.175,3.105-1.917,4.908
		c0.544,3.804-1.992,6.197-3.912,9.621c-4.298,7.663-8.908,14.677-13.324,22.475c2.592-0.145,5.958,0.985,5.721,4.157
		c1.545-6.028,3.458-11.929,6.117-17.569c0.6-1.272,4.447-11.375,5.324-6.256c0.253,1.475-2.673,5.859-3.272,7.319
		c-1.257,3.06-2.458,6.145-3.51,9.283c-1.956,5.832-3.401,11.93-4.1,18.048c-0.426,3.725-0.482,3.599,3.279,4.091
		c3.852,0.501,7.701,1.028,11.556,1.506c2.925,0.365,5.907,0.745,8.845,0.682c1.559-0.036,3.488,0.221,4.983,0.085
		c2.042-0.182,1.526,0.688,2.89-1.665c1.934-3.334,2.947-7.279,2.595-11.161C215.635,201.005,215.403,199.918,215.143,198.869"/>
	<path fill-rule="evenodd" clip-rule="evenodd" fill="#666666" d="M186.069,158.621c1.583-1.997-1.044-5.563-1.504-7.755
		C184.727,153.505,185.242,156.112,186.069,158.621"/>
	<path fill-rule="evenodd" clip-rule="evenodd" fill="#666666" d="M164.748,202.023c0.154-0.416,0.198-0.875,0.355-1.298
		c-1.529,1.374-4.524,3.494-3.952,5.987C161.824,209.645,164.185,203.303,164.748,202.023"/>
	<path fill-rule="evenodd" clip-rule="evenodd" fill="#666666" d="M178.224,194.063c-1.535-0.635-3.206-0.648-4.806-0.294
		C175.022,193.794,176.628,193.9,178.224,194.063"/>
	<path fill-rule="evenodd" clip-rule="evenodd" fill="#666666" d="M181.025,197.719c-0.011-0.313-0.037-0.63-0.059-0.944
		c-0.145,2.545-1.233,4.649-3.155,6.311C180.029,201.99,180.529,200.03,181.025,197.719"/>
	<path fill-rule="evenodd" clip-rule="evenodd" fill="#CCCCCC" d="M180.465,200.255c-0.705,1.64-1.831,2.133-3.155,3.153
		c-2.488,1.92-4.708,4.107-6.546,6.488c2.686,0.724,5.354,1.48,8.021,2.27C179.101,208.144,179.674,204.209,180.465,200.255"/>
	<path fill-rule="evenodd" clip-rule="evenodd" fill="#CCCCCC" d="M199.81,216.913c-6.169-0.821-12.322-2.036-18.519-2.594
		c-0.02,0.137-0.039,0.275-0.058,0.413c6.485,1.185,13.001,2.859,19.581,3.43c2.76,0.238,6.785,1.164,9.081-0.63
		C206.728,216.604,203.126,217.488,199.81,216.913"/>
	<path fill-rule="evenodd" clip-rule="evenodd" fill="#CCCCCC" d="M157.938,215.352c2.478-1.226,5.114-1.932,7.755-2.714
		c-2.574-1.841-5.759-2.282-8.847-2.741c0.206,1.868,0.23,5.914-1.357,6.812C156.277,216.177,157.108,215.799,157.938,215.352"/>
	<path fill-rule="evenodd" clip-rule="evenodd" fill="#CCCCCC" d="M163.068,216.088c-2.253,0.724-4.542,1.665-6.694,2.477
		C158.807,218.228,161.011,217.413,163.068,216.088"/>
	<path fill-rule="evenodd" clip-rule="evenodd" fill="#CCCCCC" d="M236.521,205.473c0.088-0.275,0.176-0.549,0.264-0.826
		c-0.616,0.308-1.274,0.761-1.768,1.239C235.817,206.107,235.983,205.712,236.521,205.473"/>
	<path fill-rule="evenodd" clip-rule="evenodd" fill="#CCCCCC" d="M232.422,213.522c-0.039-1.268-0.079-2.535-0.118-3.803
		c-0.77,2.09-0.343,4.393,0.825,6.25C232.868,215.16,232.673,214.333,232.422,213.522"/>
	<path fill-rule="evenodd" clip-rule="evenodd" fill="#FFFFFF" d="M148.147,151.958c0.304,0.28,0.149,0.641,0.795,0.5
		C148.678,152.291,148.413,152.126,148.147,151.958"/>
	<path fill-rule="evenodd" clip-rule="evenodd" fill="#666666" d="M137.325,158.621c0.638-1.052,1.371-2.053,2.183-2.979
		c-2.667,2.446-3.834,4.816-6.016,7.489C134.991,161.808,136.224,160.286,137.325,158.621"/>
	<path fill-rule="evenodd" clip-rule="evenodd" fill="#666666" d="M121.638,165.875c-1.036,0.897-1.628,3.101-2.034,4.6
		C120.52,169.264,123.249,166.954,121.638,165.875"/>
	<path fill-rule="evenodd" clip-rule="evenodd" fill="#FFFFFF" d="M123.142,165.875c1.707,0.838,3.741,0.215,5.455-0.354
		C126.788,165.9,124.972,165.967,123.142,165.875"/>
	<path fill-rule="evenodd" clip-rule="evenodd" fill="#CCCCCC" d="M119.693,170.741c0.063-0.795,0.023,0.502,0.117,0.883
		C119.771,171.329,119.732,171.034,119.693,170.741"/>
	<path fill-rule="evenodd" clip-rule="evenodd" fill="#CCCCCC" d="M115.948,171.389c0.28,0.19,0.534,0.674,0.737,0.944
		c0.084-0.087,0.468-0.487,0.53-0.561C116.825,171.646,116.309,171.583,115.948,171.389"/>
	<path fill-rule="evenodd" clip-rule="evenodd" fill="#CCCCCC" d="M117.215,175.604c-0.563-2.62-2.018-5.122-4.954-5.395
		c0.435,3.091,0.346,6.152-0.015,9.241c-0.184,1.586-0.501,3.152-0.693,4.734c-0.301,2.484-0.745,3.299,0.796,4.422
		C120.756,194.739,117.419,179.336,117.215,175.604"/>
	<path fill-rule="evenodd" clip-rule="evenodd" fill="#666666" d="M117.215,175.604c0.158,2.897,0.577,5.769,0.974,8.64
		C118.179,181.313,117.747,178.479,117.215,175.604"/>
	<path fill-rule="evenodd" clip-rule="evenodd" fill="#666666" d="M127.565,184.393c-0.148,2.197,0.682,4.363,2.447,5.72
		c-2.354-2.699-0.566-6.642-4.748-8.258C126.084,182.649,126.854,183.498,127.565,184.393"/>
	<path fill-rule="evenodd" clip-rule="evenodd" fill="#666666" d="M121.845,179.113c0.611,0.46,1.292,0.906,1.916,1.386
		c-0.706-0.7-1.403-1.408-2.093-2.123C121.727,178.623,121.786,178.867,121.845,179.113"/>
	<path fill-rule="evenodd" clip-rule="evenodd" fill="#FFFFFF" d="M98.019,158.621c0.012-0.194,0.474-0.498,0.62-0.591
		c-0.365-0.099-0.728-0.195-1.091-0.294C97.685,157.928,98.034,158.376,98.019,158.621"/>
	<path fill-rule="evenodd" clip-rule="evenodd" fill="#FFFFFF" d="M100.496,167.908c0.151,1.204,3.191,1.379,4.688,1.211
		C103.536,169.209,101.895,168.776,100.496,167.908"/>
	<path fill-rule="evenodd" clip-rule="evenodd" fill="#666666" d="M111.288,168.912c-0.081-0.152,0.099-0.63,0.147-0.737
		c-0.311-0.029-0.642-0.048-0.943,0.06C110.711,168.414,111.154,168.668,111.288,168.912"/>
	<path fill-rule="evenodd" clip-rule="evenodd" fill="#FFFFFF" d="M112.172,169.591
		C111.707,169.352,111.967,169.486,112.172,169.591"/>
	<path fill-rule="evenodd" clip-rule="evenodd" fill="#FFFFFF" d="M110.021,167.762C109.57,167.828,109.147,167.891,110.021,167.762
		"/>
	<path fill-rule="evenodd" clip-rule="evenodd" fill="#FFFFFF" d="M87.875,154.14c0.438,0.107,0.87,0.214,1.297,0.354
		c-0.887-0.353-1.835-0.633-2.771-0.825C86.888,153.844,87.381,153.989,87.875,154.14"/>
	<path fill-rule="evenodd" clip-rule="evenodd" fill="#666666" d="M87.964,199.753c0.849-0.341,1.666-0.83,2.358-1.415
		C89.543,198.774,88.597,199.377,87.964,199.753"/>
	<path fill-rule="evenodd" clip-rule="evenodd" fill="#666666" d="M111.17,188.402c-2.536-0.509-5.175-0.695-7.756-0.679
		c1.386,0.584,4.348,2.014,5.455,2.153c2.192,0.273,4.749-0.472,7.048-0.267C114.374,189.08,112.785,188.652,111.17,188.402"/>
	<path fill-rule="evenodd" clip-rule="evenodd" fill="#666666" d="M95.188,205.621c-1.012-2.147-5.744-1.019-7.696-0.472
		C90.052,205.505,92.603,205.651,95.188,205.621"/>
	<path fill-rule="evenodd" clip-rule="evenodd" fill="#666666" d="M93.419,214.113c-1.255,1.911-0.749,4.143,1.415,5.069
		c-1.4-1.703-1.008-4.23-0.737-6.278C93.808,213.28,93.608,213.68,93.419,214.113"/>
	<path fill-rule="evenodd" clip-rule="evenodd" fill="#FFFFFF" d="M84.189,204.175C84.299,204.493,84.441,204.899,84.189,204.175"/>
	<path fill-rule="evenodd" clip-rule="evenodd" fill="#FFFFFF" d="M113.971,240.531c0.177,0.167,0.354,0.333,0.531,0.5
		c-0.164-0.456-0.393-1.014-0.619-1.443C113.891,239.752,114.05,240.421,113.971,240.531"/>
	<path fill-rule="evenodd" clip-rule="evenodd" fill="#CCCCCC" d="M114.384,240.825c3.281,3.78,8.179,6.146,12.71,8.079
		c0.197-2.951-0.612-4.006,1.445-6.634c2.536-3.239,5.601-6.483,7.136-10.289c-1.959,0.746-3.995,2.964-5.942,3.375
		c-2.219,0.469-4.327,1.627-5.764,3.405c-2.829-2.846-4.997-6.31-6.045-10.201c-0.767-2.841,0.249-7.855-1.032-9.996
		c0.068,2.409-1.741,5.461-2.258,8.023C113.771,230.866,112.473,236.674,114.384,240.825"/>
	<path fill-rule="evenodd" clip-rule="evenodd" fill="#666666" d="M125.943,204.678c-0.479,0.177-0.945,0.415-1.415,0.62
		c2.391-0.046,3.089-0.691,3.746-3.067C127.64,203.188,126.871,204.026,125.943,204.678"/>
	<path fill-rule="evenodd" clip-rule="evenodd" fill="#666666" d="M116.891,218.564c-0.667-0.762-0.706,1.274-0.943,2.301
		C116.798,220.207,116.864,219.55,116.891,218.564"/>
	<path fill-rule="evenodd" clip-rule="evenodd" fill="#FFFFFF" d="M289.009,192.471c-3.376-3.218-10.547-5.766-15.04-8.64
		c-4.377-2.8-8.485-6.077-12.083-9.828c-2.646-2.755-8.735-9.66-9.07-1.194c-0.142,3.584,1.105,7.229,1.574,10.728
		c0.992,7.396,0.316,13.018,8.08,16.895c3.506,1.752,2.761,3.912,6.028,5.652c4.102,2.186,8.384,3.293,11.25,7.234
		c1.726-3.124,5.235,0.332,5.486,2.696c0.444,4.219-3.374,7.587-2.655,12.164c0.438,2.793,3.727,7.476,1.357,10.26
		c-1.867,2.194-5.347,0.671-6.783-1.355c-0.281,0.825-0.467,1.906-0.618,2.772c4.726,0.934,6.939,5.086,11.515,6.06
		c5.42,1.151,11.481,0.671,16.322-2.138c2.691-1.564,3.563-3.901,5.571-6.311c1.938-2.324,4.436-3.469,5.243-6.381
		c1.247-4.491,4.294-17.538-1.32-19.744c-0.436,6.065-4.078,5.96-9.053,7.343c-3.444,0.956-12.32,7.672-13.447,1.503
		c-0.458-2.509-0.38-4.753-2.388-6.678c-2.012-1.927-4.053-3.166-5.176-5.839C281.306,201.722,284.778,196.551,289.009,192.471"/>
	<path fill-rule="evenodd" clip-rule="evenodd" fill="#CCCCCC" d="M254.774,187.988c0.33-2.283-0.675-3.579-0.974-5.603
		c-0.345-2.335,0.6-4.012-1.149-6.103c-0.409,4.337-0.769,8.66-0.811,13.018c-0.029,2.873-1.863,6.338-2.934,9.096
		c-2.652,6.83-6.202,13.155-10.086,19.343c1.934-0.006,5.281-4.187,6.783-5.425c4.402-3.635,9.722-6.882,15.362-8.049
		c3.937-0.817,6.155,0.921,1.651,2.447c-5.035,1.707-9.636,2.569-13.917,6.072c9.425,0.701,19.864,4.912,26.509,11.822
		c0.938-1.041,1.385-4.188,3.126-2.505c0.708,0.684,0.423,2.259,0.249,3.065c-0.263,1.238-0.285,2.525-0.086,3.776
		c0.093,0.589,1.303,2.506,1.252,2.771c-0.532,2.822-2.567,0.836-3.566-0.765c-0.872-1.397-0.563-2.925-2.271-4.1
		c-0.923-0.637-1.566-0.385-2.566-0.885c-3.629-1.812-6.719-4.434-10.556-6.045c-3.322-1.396-10.731-4.696-13.991-2.682
		c-1.659,1.022-5.069,2.983-6.076,4.806c-1.136,2.059-1.764,2.25-1.224,4.423c0.478,1.911,2.367,3.976,3.612,5.438
		c0.755,0.889,2.335,5.315,2.615,5.342c5.041,0.495,10.252,0.646,15.237,1.585c3.436,0.646,7.783,1.121,11.091,1.108
		c2.614-0.009,5.089,0.269,5.101-2.859c1.433,2.019,4.8,3.499,6.694,1.414c2.42-2.667-0.675-7.227-1.195-9.935
		c-0.904-4.719,2.943-7.979,2.611-12.268c-0.187-2.392-3.695-6.27-5.516-2.977c-2.429-3.338-5.775-4.619-9.377-6.311
		c-0.843-0.395-4.897-1.969-4.718-2.903c0.211-1.105-0.081-1.643-0.736-2.463c-1.845-2.307-5.895-2.694-7.932-5.396
		C255.304,194.013,254.229,190.775,254.774,187.988 M252.74,201.138c0.318,0.407,0.702,0.781,1.061,1.15
		C252.994,202.13,253.109,201.676,252.74,201.138"/>
	<path fill-rule="evenodd" clip-rule="evenodd" fill="#FFFFFF" d="M252.74,201.138c0.37,0.538,0.254,0.992,1.061,1.15
		C253.441,201.919,253.058,201.545,252.74,201.138"/>
	<path fill-rule="evenodd" clip-rule="evenodd" fill="#666666" d="M313.868,211.341c-0.392,4.483-4.083,5.806-7.844,7.018
		C310.677,217.435,313.489,216.622,313.868,211.341"/>
	<path fill-rule="evenodd" clip-rule="evenodd" fill="#666666" d="M290.423,215.352c0.211,0.773,0.418,1.536,0.768,2.27
		C291.031,216.82,290.738,216.099,290.423,215.352"/>
	<path fill-rule="evenodd" clip-rule="evenodd" fill="#FFFFFF" d="M238.969,224.669
		C238.896,225.129,238.871,225.282,238.969,224.669"/>
	<path fill-rule="evenodd" clip-rule="evenodd" fill="#666666" d="M290.512,193.148c-7.79,2.196-7.277,12.272-3.272,17.308
		c1.113,1.4,2.628,2.676,3.567,4.186c1.056,1.697,0.769,3.824,1.593,5.339c2.118,3.897,7.308-0.475,10.246-1.682
		c4.777-1.961,15.206-3.836,7.093-9.703c-2.997-2.169-3.725-6.109-6.502-8.475C299.585,197.017,294.727,195.339,290.512,193.148"/>
	<path fill-rule="evenodd" clip-rule="evenodd" fill="#FFFFFF" d="M289.097,212.964c0.537-0.301-2.439-2.914-3.272-4.188
		c-1.243-1.898-1.8-4.157-1.77-6.427C283.315,206.368,286.024,210.607,289.097,212.964"/>
	<path fill-rule="evenodd" clip-rule="evenodd" fill="#FFFFFF" d="M292.608,220.274c-0.417,0.472,0.576,2.195,2.27,1.623
		C293.734,221.687,293.35,221.042,292.608,220.274"/>
	<path fill-rule="evenodd" clip-rule="evenodd" fill="#FFFFFF" d="M244.895,180.027c-0.553,1.3-1.062,2.788-0.942,4.217
		C244.215,182.925,245.087,180.234,244.895,180.027"/>
	<path fill-rule="evenodd" clip-rule="evenodd" fill="#CCCCCC" d="M246.724,178.229c-7.606,6.195-0.253,28.929-13.003,30.106
		c0.612,2.761,1.346,5.495,2.181,8.195c3.847-5.486,7.313-11.056,9.819-17.308c1.127-2.813,2.62-6.027,3.244-8.933
		c0.958-4.453,0.344-9.865,0.974-14.567C248.618,176.162,247.512,177.083,246.724,178.229"/>
	<path fill-rule="evenodd" clip-rule="evenodd" fill="#FFFFFF" d="M152.717,82.726C152.051,83.66,152.648,82.822,152.717,82.726"/>
	<path fill-rule="evenodd" clip-rule="evenodd" fill="#666666" d="M152.717,82.726c1.448,0.114,1.877,0.694,2.655,1.503
		c-0.555-0.578-0.313,1.739-0.384,1.387c0.17,0.85,1.513-0.44,1.23,1.664c-0.863,6.441-0.732,12.882-0.423,19.356
		c0.044,0.93-0.204,4.405,0.727,5.22c1.572,1.383,1.606-0.668,3.42-1.413c1.782-0.73,5.873,1.188,6.516-0.562
		c2.618-0.555,5.453-1.788,6.99-4.098c1.44-2.164,0.958-2.754,0.752-5.366c-0.121-1.545,0.193-7.072,2.55-5.426
		c0.995-7.758,4.764-16.161,11.56-20.521c-0.916-0.182-3.998,0.687-5.456,0.885c-2.984,0.401-6.338,1.379-9.495,1.856
		c-3.703,0.564-7.438,0.689-11.177,0.82C158.678,78.154,155.358,80.499,152.717,82.726"/>
	<path fill-rule="evenodd" clip-rule="evenodd" fill="#FFFFFF" d="M154.604,85.115c-0.125,0.261-0.83,0.374-0.191,0.441
		C155.042,85.625,154.452,85.432,154.604,85.115"/>
	<path fill-rule="evenodd" clip-rule="evenodd" fill="#CCCCCC" d="M187.896,74.059C187.904,74.063,188.54,74.337,187.896,74.059"/>
	<path fill-rule="evenodd" clip-rule="evenodd" fill="#CCCCCC" d="M188.989,73.94C189.409,73.237,189.044,73.846,188.989,73.94"/>
	<path fill-rule="evenodd" clip-rule="evenodd" fill="#666666" d="M191.051,77.153c-0.332-0.291-0.87-0.431-1.238-0.709
		c-2.778,4.924-4.147,10.513-4.276,16.159c1.689-1.276,3.49-2.364,5.102-3.745C186.34,86.02,189.772,80.763,191.051,77.153"/>
	<path fill-rule="evenodd" clip-rule="evenodd" fill="#666666" d="M181.173,93.281c-0.054,0.305,0.244,0.792,0,1.27
		c3.373,1.167,2.438-5.149,2.86-7.401c0.641-3.426,1.771-6.878,3.451-9.938c-4.798,4.441-7.38,10.572-8.581,16.896
		C179.628,93.621,180.449,93.642,181.173,93.281"/>
	<path fill-rule="evenodd" clip-rule="evenodd" fill="#FFFFFF" d="M181.173,94.551c0.397,0.08,0.898,0.324,1.503,0.205
		C182.172,94.707,181.673,94.634,181.173,94.551"/>
	<path fill-rule="evenodd" clip-rule="evenodd" fill="#666666" d="M176.927,130.521c-7.12-1.126-8.833,6.67-11.646,10.909
		c-0.928,1.398-3.15,1.565-4.1,2.861c-3.207,4.369,6.895,4.869,9.112,5.6c3.496,1.153,6.614,3.085,9.303,5.589
		c1.781,1.658,3.164,3.132,5.705,3.436c-2.458-6.63-1.668-13.477-2.438-20.376C182.286,133.365,179.029,133.922,176.927,130.521"/>
	<path fill-rule="evenodd" clip-rule="evenodd" fill="#FFFFFF" d="M160.679,145.854c0.093,0.611-0.281,0.805,0.384,1.327
		C160.875,146.76,160.749,146.313,160.679,145.854"/>
	<path fill-rule="evenodd" clip-rule="evenodd" fill="#666666" d="M218.741,138.07c-2.138,2.487-5.966,8.323-4.364,11.705
		c2.211-6.138,3.498,5.4,4.423,6.958c0.592-2.381,1.249-4.894,2.388-7.135c1.671,0.886,1.751,2.911,2.713,4.406
		c1.19,1.856,2.81,3.486,4.836,4.41c-2.119-4.889-1.834-10.465,0.016-15.392c0.984-2.622,5.482-6.422,5.174-9.051
		c-2.589,1.68-5.75,3.988-7.696,6.604c-1.678,2.256-2.058,5.937-4.482,7.519c-0.012-5.293,5.755-11.326,9.79-14.095
		c-8.489-1.334-10.42,8.487-15.864,12.119c-0.502-3.983,5.969-9.411,9.082-11.44c-0.187,0.02-0.375,0.039-0.562,0.061
		c0.605-0.633,0.99-1.409,1.712-1.977C223.639,132.825,220.29,136.197,218.741,138.07"/>
	<path fill-rule="evenodd" clip-rule="evenodd" fill="#FFFFFF" d="M218.947,137.863C218.505,138.318,218.86,137.951,218.947,137.863
		"/>
	<path fill-rule="evenodd" clip-rule="evenodd" fill="#FFFFFF" d="M213.993,148.92c-0.049,0.472-0.099,0.944-0.148,1.415
		C214.666,149.773,214.054,149.637,213.993,148.92"/>
	<path fill-rule="evenodd" clip-rule="evenodd" fill="#FFFFFF" d="M216.706,149.658
		C216.679,149.794,216.604,150.181,216.706,149.658"/>
	<path fill-rule="evenodd" clip-rule="evenodd" fill="#CCCCCC" d="M218.887,156.675
		C218.799,156.803,218.611,157.073,218.887,156.675"/>
	<path fill-rule="evenodd" clip-rule="evenodd" fill="#666666" d="M236.374,134.884c-0.676,0.473-3.722,3.736-2.771,5.161
		C234.155,138.15,235.169,136.438,236.374,134.884"/>
	<path fill-rule="evenodd" clip-rule="evenodd" fill="#666666" d="M238.969,135.829c0.187-0.811,0.192-1.683,0.354-2.507
		c-4.347,4.34-12.15,20.224-3.215,23.678C237.488,149.732,236.363,142.775,238.969,135.829"/>
	<path fill-rule="evenodd" clip-rule="evenodd" fill="#FFFFFF" d="M235.637,156.853
		C236.281,157.158,236.082,157.063,235.637,156.853"/>
	<path fill-rule="evenodd" clip-rule="evenodd" fill="#666666" d="M227.734,133.439c-0.396,0.027-0.512-0.31-0.768,0.208
		C227.223,133.58,227.479,133.508,227.734,133.439"/>
	<path fill-rule="evenodd" clip-rule="evenodd" fill="#666666" d="M232.364,141.46c0.219-0.606,0.378-1.227,0.619-1.828
		c-1.683,2.852-8.145,12.921-2.271,15.541C230.111,150.661,230.689,145.694,232.364,141.46"/>
	<path fill-rule="evenodd" clip-rule="evenodd" fill="#FFFFFF" d="M230.388,155.173
		C230.991,155.722,230.682,155.439,230.388,155.173"/>
	<path fill-rule="evenodd" clip-rule="evenodd" fill="#CCCCCC" d="M230.712,155.584
		C230.802,155.694,230.723,155.597,230.712,155.584"/>
	<path fill-rule="evenodd" clip-rule="evenodd" fill="#666666" d="M238.703,144.203c-0.73,3.455-0.616,7.159-1.15,10.672
		c0.218,0.104,1.053,0.443,1.268,0.502C240.142,152.306,239.213,147.478,238.703,144.203"/>
	<path fill-rule="evenodd" clip-rule="evenodd" fill="#FFFFFF" d="M166.252,199.429c0.838-1.447,1.875-2.889,3.273-3.893
		C168.004,196.348,166.808,197.8,166.252,199.429"/>
	<path fill-rule="evenodd" clip-rule="evenodd" fill="#666666" d="M167.02,198.28c-1.396,1.681-1.693,4.465-2.595,6.516
		c-0.397,0.9-1,1.629-1.253,2.608c-0.189,0.73,4.008,1.699,4.909,1.755c3.105,0.188,3.385-1.675,5.692-3.905
		c2.115-2.047,8.819-6.173,5.573-9.776C176.289,192.085,168.979,195.029,167.02,198.28"/>
	<path fill-rule="evenodd" clip-rule="evenodd" fill="#666666" d="M132.401,194.298c1.993-2.388-2.882-2.979-4.246-4.747
		c-1.022-1.324-0.847-2.711-1.416-4.128c-0.869-2.159-2.792-3.825-4.688-5.454c1.308,8.361,0.178,16.289-1.563,24.502
		C127.714,206.414,128.674,198.558,132.401,194.298"/>
	<path fill-rule="evenodd" clip-rule="evenodd" fill="#FFFFFF" d="M133.08,192.736C133.08,192.657,133.08,192.657,133.08,192.736"/>
	<path fill-rule="evenodd" clip-rule="evenodd" fill="#FFFFFF" d="M122.611,204.942c-0.719-0.235-1.355-0.443-2.123-0.472
		c-0.099,0.194-0.159,0.401-0.178,0.62C121.021,205.058,121.927,205.137,122.611,204.942"/>
	<path fill-rule="evenodd" clip-rule="evenodd" fill="#CCCCCC" d="M113.471,222.485c-0.023,0.07-0.209,0.453-0.178,0.709
		C113.352,222.959,113.411,222.722,113.471,222.485"/>
	<path fill-rule="evenodd" clip-rule="evenodd" fill="#CCCCCC" d="M256.455,155.495c0.276,0.513,0.592,0.939,0.768,1.505
		C257.206,156.195,256.677,155.816,256.455,155.495"/>
	<path fill-rule="evenodd" clip-rule="evenodd" fill="#666666" d="M142.426,38.41c-0.098,0.994,8.624-0.77,9.938-1.091
		C149.078,37.917,145.763,38.251,142.426,38.41"/>
	<path fill-rule="evenodd" clip-rule="evenodd" fill="#CCCCCC" d="M153.101,56.013c4.009,3.854,8.658,6.967,14.184,8.05
		C161.996,62.387,157.397,59.482,153.101,56.013"/>
	<path fill-rule="evenodd" clip-rule="evenodd" fill="#CCCCCC" d="M191.995,65.359c-1.185,0.379-1.924,1.354-2.035,2.596
		C190.763,66.927,192.152,65.635,191.995,65.359"/>
	<path fill-rule="evenodd" clip-rule="evenodd" fill="#666666" d="M45.944,131.2c-3.192,2.907-6.073,6.518-8.227,10.26
		c2.888-3.835,5.92-7.5,9.111-11.085C46.534,130.65,46.238,130.925,45.944,131.2"/>
	<path fill-rule="evenodd" clip-rule="evenodd" fill="#CCCCCC" d="M23.474,207.035c-0.474-1.834-0.903-3.781-1.238-5.779
		c-0.52,8.113,5.597,24.574,12.266,29.427c-2.828-4.789-5.893-9.848-7.563-14.844C25.9,212.729,24.716,209.907,23.474,207.035"/>
	<path fill-rule="evenodd" clip-rule="evenodd" fill="#666666" d="M42.965,240.266c-1.647-1.206-3.186-2.551-4.57-4.07
		C39.212,238.246,40.706,239.909,42.965,240.266"/>
	<path fill-rule="evenodd" clip-rule="evenodd" fill="#CCCCCC" d="M120.901,249.789c1.199,0.985,2.769,1.049,4.247,0.767
		c-1.52-0.853-3.263-0.979-4.924-1.414C120.449,249.357,120.675,249.575,120.901,249.789"/>
</g>
</svg>
